<?xml version="1.0" encoding="utf-8"?>
<!-- Generator: Adobe Illustrator 22.0.0, SVG Export Plug-In . SVG Version: 6.00 Build 0)  -->
<svg version="1.1" id="Layer_1" xmlns="http://www.w3.org/2000/svg" xmlns:xlink="http://www.w3.org/1999/xlink" x="0px" y="0px"
	 viewBox="0 0 90 60" style="enable-background:new 0 0 90 60;" xml:space="preserve">
<title>_</title>
<path d="M62.2,34.4c-0.1,0.2-0.2,0.3-0.3,0.5c-0.3,0.7-0.7,1.3-1.1,1.9c-1,1.2-2,2.3-3.1,3.5c-0.9,1.1-1.8,2.2-2.8,3.2
	c-2.1,1.8-4,3.8-6.2,5.5c-1,0.8-2,1.6-3,2.2c-0.4,0.2-0.6,0.3-1,0c-0.6-0.4-1.3-0.7-1.9-1.2c-1.2-1-2.3-2-3.5-3.1
	c-1.3-1.1-2.6-2.2-3.7-3.4c-1.5-1.5-3-3.1-4.3-4.7c-1-1.2-1.9-2.7-2.8-4c-0.3-0.4-0.4-0.6,0-1c1.1-1.3,2.1-2.7,3.2-4
	c2.2-2.6,4.5-5,6.9-7.2c1.8-1.7,3.7-3.3,5.8-4.7c0.6-0.5,1.4-0.4,1.9,0.1c1.3,1,2.6,2,3.9,3c2.2,1.8,4.3,3.8,6.2,5.9
	c2,2.1,3.9,4.4,5.6,6.8C61.9,34.1,62,34.2,62.2,34.4z M45,18.1c-0.2,0.1-0.3,0.2-0.4,0.3C39.4,23.6,34.2,28.8,29,33.9
	c-0.5,0.5-0.2,0.8,0.2,1.1c5,5,10.1,10.1,15.1,15.1c0.7,0.7,0.7,0.7,1.4,0c5-5,10.1-10.1,15.1-15.1c0.7-0.7,0.7-0.7,0-1.4
	c-4.9-5-9.9-9.9-14.8-14.8c-0.2-0.2-0.4-0.4-0.6-0.6C45.3,18.2,45.2,18.2,45,18.1z"/>
<path d="M52.6,11.8c-0.1,0.3-0.2,0.6-0.3,0.9c-0.2,0.3-0.5,0.5-0.8,0.2c-0.2-0.2-0.7-0.2-0.3-0.7c0.1-0.2,0.2-0.5,0.2-0.7
	c-0.1-0.8-0.9-1.3-1.7-1.2c0,0,0,0,0,0c-0.1,0-0.2,0.2-0.3,0.4c-0.1,0.3-0.2,0.6-0.3,0.9c-0.1,0.2-0.4,0.4-0.5,0.1
	c-0.1-0.3-0.3-0.6-0.3-0.8c-0.2-0.7-0.8-1.2-1.5-1.3c-0.6-0.1-1.1,0-0.9,0.8c0,0.2,0.1,0.5,0,0.6c-0.2,0.2-0.5,0.6-0.7,0.6
	c-0.2,0-0.5-0.3-0.8-0.5c-0.1-0.1,0-0.4-0.1-0.6c0-0.3-0.1-0.6-0.2-0.9c-0.5,0-1-0.3-1.5,0.2c-0.3,0.4-0.8,0.6-0.7,1.3
	c0,0.2-0.3,0.6-0.5,0.7c-0.2,0-0.4,0-0.6-0.2c-0.1-0.3,0-0.7-0.1-1c-0.1-0.2-0.3-0.3-0.5-0.3c-1.3,0.1-1.8,0.7-1.3,1.8
	c0.2,0.6-0.1,0.7-0.3,0.8c-0.4,0.3-0.7-0.2-0.9-0.4c-0.1,0-0.1-0.1-0.1-0.2c-0.4-1.3,0.3-2.7,1.6-3.2C39.4,9.1,39.7,9,39.9,9
	c1,0.1,2-0.1,2.9-0.7c0.2-0.1,0.5-0.1,0.7-0.1C44,8.4,44.5,8.5,45,8.6c0.4-0.1,0.8-0.2,1.2-0.4c0.3-0.1,0.8-0.2,1,0
	c1.1,1.3,2.8,0.3,4.1,1.1C52.5,10.2,52.6,10.2,52.6,11.8z"/>
<path d="M45,14.5c1.6-0.1,2.9,0.6,4.4,0.9c0.2,0.1,0.5,0.2,0.6,0.4c0.1,0.2,0.1,0.5,0,0.6c-0.1,0.2-0.2,0.5-0.7,0.3
	c-2.3-0.7-3.3-1.3-5.1-1c-1.2,0.2-2.5,0.1-3.6,0.9c-0.5,0.4-0.5-0.1-0.7-0.2c-0.3-0.3-0.2-0.6,0.1-0.8c0.5-0.3,1-0.5,1.5-0.7
	C42.8,14.8,43.9,14.7,45,14.5z"/>
<path d="M49,14.4c-0.1,0-0.4,0.2-0.5,0.1c-0.3-0.3-0.8-0.5-1.2-0.4c-0.2,0-0.4-0.2-0.6-0.3c0.1-0.2,0.2-0.4,0.4-0.5
	c0.4-0.2,0.8-0.4,0.8-1c0-0.1,0.3-0.2,0.5-0.2c0.1,0,0.3,0.2,0.3,0.4C48.7,13.1,48.8,13.7,49,14.4z"/>
<path d="M46.2,14c-0.1,0-0.3,0.2-0.5,0.1c-0.3-0.1-0.6-0.4-0.8-0.4c-0.4,0-0.7,0.8-1,0.1c-0.1-0.2,0.3-0.6,0.5-0.9
	c0.2-0.3,0.3-0.6,0.6-0.9c0.1-0.1,0.3-0.1,0.4-0.1c-0.2,0.8,0.6,1.2,0.8,1.8C46.3,13.9,46.3,13.9,46.2,14z"/>
<path d="M43.4,13.9c-0.1,0.1-0.1,0.2-0.2,0.2c-0.7,0.1-1.3,0.2-2,0.3c-0.3-0.8,0.6-1.4,0.3-2.2c0.1-0.1,0.2-0.1,0.3-0.2
	c0.1,0,0.2,0,0.3,0.1c-0.1,0.8,0.6,1.1,1.1,1.5C43.3,13.8,43.4,13.9,43.4,13.9z"/>
<path d="M40.8,14.6c-0.2,0.2-0.3,0.4-0.4,0.4c-0.8,0-1.6-0.3-2.1-1c-0.1-0.1,0.2-0.5,0.3-0.5c0.3,0,0.6,0,0.8,0.2
	c-0.1,0.8,0.5,0.5,0.9,0.6C40.5,14.2,40.6,14.4,40.8,14.6z"/>
<path d="M49.7,15c-0.1-0.1-0.3-0.2-0.3-0.3c0.1-0.2,0.2-0.4,0.4-0.5c0.3-0.1,0.8,0.2,0.8-0.5c0-0.5,0.5-0.3,0.7-0.3
	c0.2,0,0.5,0,0.3,0.4C51.3,14.5,50.5,15,49.7,15z"/>
<path d="M45.4,26.6c0,2.2,0,4.5,0,6.7c0,0.6,0.2,0.8,0.8,0.7c0.5,0,0.8,0,0.8-0.7c0-3.9,0-7.8,0-11.7c0-0.2,0.1-0.5,0.2-0.7
	c0.1,0.2,0.3,0.3,0.4,0.4c0.7,0.5,1.1,1.5,1,2.4c-0.1,3.1,0,6.2,0,9.3c0,1,0,1,0.9,1c0.5,0,0.7-0.2,0.7-0.7c0-2.4,0-4.8,0-7.1
	c0-0.6,0.1-1.1,0.2-1.7c0.1-0.2,1.2,0.6,1.6,1.2c0.1,0.3,0.2,0.6,0.2,0.9c0,2.2,0,4.5,0,6.7c0,0.6,0.3,0.6,0.7,0.6
	c0.4,0,0.9,0.2,0.9-0.6c-0.1-1.7,0-3.4,0-5.2c0-0.2,0.1-0.4,0.2-0.5c0.1,0.1,0.3,0.2,0.4,0.3c0.8,0.5,1.2,1.4,1,2.4c-0.1,1,0,2,0,3
	c-0.1,0.8,0.5,0.6,0.9,0.6c0.4,0,0.8,0,0.7-0.6c0-0.3,0-0.5,0-0.8c0.1-0.5-0.3-1.2,0.3-1.3c0.3-0.1,0.7,0.5,1,0.7
	c0.2,0.2,0.6,0.4,0.5,0.6c-0.2,1.2,0.6,1.5,1.4,1.8c0.1,0,0.2,0.2,0.3,0.3c-0.1,0.1-0.2,0.2-0.3,0.2c-0.5,0-0.9,0-1.4,0
	c-2.5,0-5,0-7.5,0c-0.5,0-0.7,0.1-0.7,0.6c0.1,1.1,0,2.1,0,3.2c1,0.1,2.1,0.1,3.1,0.2c0.5,0,1.1,0,1.6,0c0.2,0,0.4,0.1,0.4,0.3
	c0,0.2,0,0.4-0.2,0.5C55,40.5,54,41,52.9,40.8c-0.8,0-1.5,0-2.3,0.2c0,0.7,0,1.5,0,2.2c0.2,0.9-0.2,1.9-1,2.4
	c-0.3,0.2-0.6,0.5-0.8,0.8c-0.1-0.4-0.1-0.7-0.2-1.1c0-1.3,0-2.5,0-3.8c0-0.6-0.2-0.7-0.7-0.6c-0.8,0-1.6,0-2.4,0.1
	c0,0.8-0.1,1.5-0.1,2.3c0,2.1,0,4.2,0,6.3c0,0.1-0.2,0.3-0.3,0.4c-0.2-0.1-0.4-0.3-0.5-0.4c0-0.5,0-0.9,0-1.4c0-4.1,0-8.2,0-12.3
	c0-1,0-1-0.9-1c-0.5,0-0.7,0.2-0.7,0.7c0,0.5,0,0.9,0,1.4c0,3.5,0,7,0,10.5c0,0.2-0.1,0.4-0.2,0.5c-0.1-0.1-0.2-0.2-0.3-0.2
	c-0.8-0.6-1.2-1.5-1.2-2.5c0.1-3.2,0-6.3,0-9.5c0-0.3,0.2-0.7-0.3-0.8c-0.4,0-0.8,0-1.1,0.1c-0.1,0-0.1,0.5-0.1,0.7
	c0,2.8,0,5.7,0,8.5c0,0.2-0.1,0.4-0.2,0.5c-0.1-0.1-0.3-0.2-0.4-0.3c-0.3-0.3-0.6-0.6-0.8-0.8c-0.4-0.3-0.6-0.8-0.6-1.4
	c0-2.2,0-4.5,0-6.7c0-0.6-0.3-0.6-0.7-0.6c-0.4,0-0.9-0.2-0.9,0.6c0.1,1.7,0,3.4,0,5.2c0,0.2-0.1,0.4-0.2,0.5
	c-0.1-0.1-0.3-0.2-0.4-0.3c-0.8-0.5-1.2-1.4-1-2.4c0.1-1,0-2,0-3c0.1-0.8-0.5-0.6-0.9-0.6c-0.4,0-0.8,0-0.7,0.6c0,0.7,0,1.5,0,2.2
	c0,0.1-0.2,0.2-0.3,0.3c-0.6-0.6-1.1-1.2-1.7-1.9c-0.1-0.1,0-0.3,0-0.4c0.2-0.8-0.2-0.9-0.9-0.8c-0.2,0-0.5-0.1-0.7-0.2
	c0.2-0.2,0.5-0.5,0.8-0.6c0.4-0.1,0.8-0.1,1.2,0c2.4,0,4.9,0,7.3,0c0.5,0,0.7-0.2,0.7-0.7c0-1.1,0-2.1-0.1-3.2
	c-1-0.1-2.1-0.1-3.1-0.2c-0.3,0-0.5,0-0.8,0c-0.5,0-1-0.1-1.5-0.2c-0.2-0.1,1.3-1.4,1.8-1.4c1,0,2,0,3,0c0.5,0,0.7-0.1,0.7-0.6
	c0-0.9,0-1.7,0-2.6c0-1.2,0.9-1.9,1.7-2.7c0.1,0.1,0.3,0.2,0.3,0.3c0,1.7,0,3.3,0,5c0,0.4,0.1,0.6,0.5,0.6c0.8,0,1.7-0.1,2.5-0.1
	c0-0.8,0.1-1.6,0.1-2.3c0-1.7,0-3.4,0-5.2c0-0.3,0-0.5,0-0.8c0.1-0.4-0.4-1.1,0.3-1.1c0.9,0,0.4,0.8,0.4,1.2
	C45.5,22.3,45.4,24.4,45.4,26.6z M44.7,32.1c0-0.5,0-1.1,0-1.6c0-0.5-0.2-0.5-0.6-0.5c-0.8,0.1-1.7,0.1-2.5,0.1c0,0.8,0,1.6-0.1,2.3
	c0,0.3,0,0.7,0,1c0,0.5,0.2,0.6,0.6,0.5c0.2,0,0.4,0,0.6,0C44.7,34,44.7,34,44.7,32.1L44.7,32.1z M48.7,36.8
	c-0.1-0.6,0.1-1.5-0.3-1.8c-0.4-0.3-1.2-0.1-1.9-0.1c-0.2,0-0.4,0-0.6,0c-0.5,0-0.5,0.2-0.5,0.6c0,0.9,0,1.8,0,2.8
	c0,0.4,0.1,0.6,0.5,0.6c0.2,0,0.4,0,0.6,0c0.6,0,1.5,0.2,1.9-0.1C48.8,38.3,48.6,37.4,48.7,36.8L48.7,36.8z"/>
<circle cx="63.4" cy="34.3" r="0.9"/>
<circle cx="45.1" cy="53.1" r="0.9"/>
<circle cx="26.6" cy="34.5" r="0.9"/>
<circle cx="45.1" cy="6.9" r="0.9"/>
</svg>
