<svg id="Layer_1" data-name="Layer 1" xmlns="http://www.w3.org/2000/svg" viewBox="0 0 48 48"><title>_</title><path d="M41.18446,28.40742c-.12929.18346-.24513.327-.33847.48394a15.27445,15.27445,0,0,1-1.13777,1.90105c-.97832,1.20042-2.04286,2.3304-3.06767,3.49313A31.06737,31.06737,0,0,1,33.814,37.45831c-2.10176,1.806-3.99787,3.83631-6.21326,5.5235a23.03,23.03,0,0,1-3.04458,2.239c-.40148.21359-.58191.32628-.98632.01578-.582-.44681-1.32136-.693-1.88779-1.15465-1.20041-.97832-2.33451-2.03822-3.492-3.069-1.256-1.11849-2.56508-2.18493-3.7467-3.37743-1.50778-1.52166-2.9722-3.09613-4.3394-4.744-1.035-1.24742-1.86357-2.664-2.83792-3.965-.28736-.38368-.35165-.58385-.02172-.97873,1.10044-1.317,2.13372-2.69317,3.19211-4.04079a75.237,75.237,0,0,1,6.94267-7.19848A41.35854,41.35854,0,0,1,23.163,12.05179a1.41531,1.41531,0,0,1,1.89.11526c1.34808.95744,2.60631,2.03334,3.90946,3.04091a66.82877,66.82877,0,0,1,6.23231,5.94752,62.8562,62.8562,0,0,1,5.625,6.77741C40.93012,28.07982,41.04364,28.22436,41.18446,28.40742ZM24.02463,12.12593a2.56619,2.56619,0,0,0-.42622.28975q-7.77807,7.767-15.55617,15.534c-.52273.52009-.15592.77767.17136,1.10488q7.56326,7.56165,15.12747,15.12231c.69416.693.72292.6942,1.37205.04618q7.56893-7.556,15.125-15.12493c.65872-.65985.65814-.689-.02362-1.372q-7.416-7.42882-14.84256-14.84715c-.18673-.18673-.36576-.38222-.56368-.55621A1.96407,1.96407,0,0,0,24.02463,12.12593Z"/><path d="M31.58774,5.83553a4.27073,4.27073,0,0,1-.31157.85836c-.15823.29936-.4881.49808-.78815.16878-.151-.16575-.67019-.24839-.27288-.69964a1.28181,1.28181,0,0,0,.17755-.70921,1.4572,1.4572,0,0,0-1.6761-1.21969c-.12912.03959-.23117.24888-.29539.40109-.11836.28056-.16739.59335-.30553.86171-.12286.23868-.35056.40372-.5437.05265a5.18324,5.18324,0,0,1-.34464-.84545A1.66242,1.66242,0,0,0,25.7457,3.42585c-.58979-.05728-1.10218-.04552-.90817.79952.04308.18764.08445.45619-.01185.57828-.19126.24247-.47036.55044-.72911.566-.24588.01479-.546-.277-.7552-.49749-.10505-.11072-.04974-.36508-.08718-.55039a3.191,3.191,0,0,0-.20759-.85406c-.49164.00745-1.04826-.25533-1.46785.24265-.32488.38557-.8095.63549-.73607,1.29676.02557.23028-.29552.55715-.53651.73223a.65141.65141,0,0,1-.59125-.19189c-.08825-.30416.03106-.66787-.05433-.97379a.6605.6605,0,0,0-.5347-.33579c-1.2519.08987-1.759.6603-1.284,1.81814.24114.58783-.06339.69006-.27593.84717-.44618.32982-.66585-.15488-.94079-.38984a.34692.34692,0,0,1-.111-.15057,2.51677,2.51677,0,0,1,2.42369-3.31526,4.25155,4.25155,0,0,0,2.8773-.72914,1.04012,1.04012,0,0,1,.74853-.07025,9.04365,9.04365,0,0,0,1.4213.356,6.57159,6.57159,0,0,0,1.22251-.35552c.31752-.06234.819-.15336.9612.00995,1.1244,1.29148,2.82876.34762,4.09726,1.14574C31.49821,4.1796,31.59415,4.16752,31.58774,5.83553Z"/><path d="M24.01637,8.49669c1.5699-.1197,2.94781.64341,4.418.89643a1.0031,1.0031,0,0,1,.59325.42993c.10588.1678.14745.53216.04285.63953-.14991.15388-.17776.48866-.68617.32375-2.28436-.741-3.30166-1.30941-5.09417-.95369-1.18428.235-2.53584.05036-3.55057.90514-.46555.39217-.52554-.09237-.69851-.24-.34292-.29267-.169-.61578.1349-.791a5.37581,5.37581,0,0,1,1.48543-.684C21.76677,8.78686,22.89657,8.66521,24.01637,8.49669Z"/><path d="M27.954,8.41652c-.08159.02853-.39414.21479-.46224.1488A1.56216,1.56216,0,0,0,26.249,8.17059c-.20139.005-.40755-.18077-.61155-.27985.13763-.16544.2429-.39843.4193-.48294.43018-.2061.78249-.41767.793-.9719.00152-.08015.30955-.23088.454-.20848.12227.019.27208.22735.30706.37606C27.73757,7.14226,27.8211,7.6912,27.954,8.41652Z"/><path d="M25.24071,8.02771c-.14971.04957-.3379.1824-.47969.144-.28639-.07761-.55311-.36452-.81781-.35193-.35453.01687-.682.78467-1.04163.10545-.08649-.16334.34879-.59892.53761-.9132.188-.31292.349-.64447.56274-.938.064-.08794.26543-.07586.4039-.10961-.21833.832.57434,1.19736.83178,1.80953A.85712.85712,0,0,1,25.24071,8.02771Z"/><path d="M22.42314,7.94951c-.06921.07918-.12815.21385-.21013.22977-.66106.12831-1.32645.23428-1.99052.34707-.274-.76359.56664-1.3807.29436-2.15214a.65512.65512,0,0,1,.31059-.15991.62025.62025,0,0,1,.33683.09314c-.08642.845.55265,1.13933,1.11122,1.497A1.0256,1.0256,0,0,1,22.42314,7.94951Z"/><path d="M19.79228,8.56106c-.16687.179-.27274.39668-.39305.405a2.43818,2.43818,0,0,1-2.07335-1.00376c-.054-.064.16721-.52546.28706-.53738a1.84186,1.84186,0,0,1,.84381.16527c-.054.79.51255.5431.91209.61118C19.50444,8.22444,19.61359,8.40276,19.79228,8.56106Z"/><path d="M28.719,8.97953c-.06254-.0583-.3032-.21125-.28145-.27581a.82269.82269,0,0,1,.36666-.49644c.30928-.11278.78427.16935.81406-.488.02257-.49821.46781-.30164.747-.31611.22975-.0119.47822-.03793.26162.38241A2.06709,2.06709,0,0,1,28.719,8.97953Z"/><path d="M24.44714,20.554c0,2.24788.0237,4.49616-.01511,6.74337-.011.63606.21838.76311.79067.746.51759-.01545.834-.01711.828-.70891-.034-3.90044-.01992-7.80133-.00757-11.702a2.63268,2.63268,0,0,1,.19806-.69067,3.09214,3.09214,0,0,0,.42383.41614,2.45742,2.45742,0,0,1,.9767,2.38433c-.055,3.10638-.02422,6.21437-.018,9.32172.002.99867.01471.96354.93564.97681.52328.00754.6648-.16139.65973-.671Q29.18354,23.8,29.21688,20.2297a6.99127,6.99127,0,0,1,.20213-1.70221c.05515-.21031,1.24682.56494,1.61552,1.23184a2.00419,2.00419,0,0,1,.15162.92416c.01179,2.24782.02892,4.4961-.00862,6.74335-.01014.60669.28666.63076.72118.60136.42349-.02865.92256.17309.89748-.62517-.054-1.71727-.0212-3.43744-.00961-5.15633a2.02932,2.02932,0,0,1,.15242-.52905c.14024.11424.27672.23353.42137.34189a2.38529,2.38529,0,0,1,1.02986,2.36314c-.10928.97952.02583,1.984-.039,2.97149-.05225.79543.46006.60961.88811.63369.424.02385.81054.026.72081-.59331a2.32131,2.32131,0,0,1,.00319-.7905c.097-.4651-.31985-1.15082.31746-1.33907.25586-.07558.70254.4541,1.04547.72934.205.16455.56452.40918.53481.55068-.24666,1.17473.56224,1.45545,1.381,1.76423.11254.04244.18923.18.28252.27346-.10488.066-.20738.18411-.31506.189-.46182.02117-.92518.009-1.388.009-2.51233,0-5.02473.00909-7.53694-.008-.47457-.00324-.71852.07349-.69167.63565.05027,1.05274.027,2.109.0343,3.16379,1.03347.05882,2.06651.12733,3.10057.17241.52791.023,1.0588-.01534,1.58584.01606.15437.0092.39427.1377.42584.25647a.71618.71618,0,0,1-.1672.50752,2.71125,2.71125,0,0,1-2.67219,1.236,11.84854,11.84854,0,0,0-2.29476.17021,18.98438,18.98438,0,0,0,.01616,2.18043,2.34544,2.34544,0,0,1-.99359,2.37777,10.10053,10.10053,0,0,0-.84557.761,9.034,9.034,0,0,1-.15358-1.12349c-.01947-1.25587-.03656-2.51321.00585-3.76794.01905-.56374-.22026-.65764-.69415-.63215-.78389.04217-1.56985.046-2.35494.066-.04614.77426-.12532,1.54822-.13207,2.32282-.01845,2.11549-.00067,4.2313-.01984,6.34678-.00121.13305-.19644.26435-.3014.39647-.15956-.14364-.43409-.27129-.45672-.434a10.1234,10.1234,0,0,1-.022-1.38534q0-6.1486-.00228-12.29721c-.00133-.99727-.01492-.9615-.93752-.97512-.52643-.00777-.69645.165-.65521.67361.03728.45977.00787.925.00787,1.38775q0,5.25608-.00779,10.51211a1.75178,1.75178,0,0,1-.17549.51914c-.0935-.08343-.18174-.1738-.28132-.24919a2.76147,2.76147,0,0,1-1.15436-2.51183c.09065-3.17088.0363-6.346.02416-9.51948-.00108-.28354.2-.72687-.30358-.78456a2.81853,2.81853,0,0,0-1.1455.09781c-.10774.03417-.12447.46265-.12518.71066-.00818,2.84288-.00238,5.6858-.012,8.52868a2.01514,2.01514,0,0,1-.15208.52923c-.14025-.11391-.28908-.21888-.419-.34355a11.50318,11.50318,0,0,0-.849-.83223,1.49731,1.49731,0,0,1-.57286-1.36134c.03894-2.2472-.00681-4.49586.03082-6.74311.01018-.60753-.28786-.62989-.72168-.60084-.42374.02836-.92221-.17238-.89706.62562.05414,1.71725.02126,3.43743.00964,5.15632a2.02484,2.02484,0,0,1-.15273.52891c-.14025-.11447-.2766-.23416-.4214-.34254a2.385,2.385,0,0,1-1.02944-2.36329c.109-.97958-.02574-1.984.03892-2.97151.05209-.79567-.46079-.60892-.88855-.63321-.42447-.02411-.77421-.027-.72693.59387a20.06378,20.06378,0,0,1,.00044,2.18038c-.00363.10983-.17292.2142-.26558.3211-.56864-.62394-1.144-1.24207-1.697-1.87954-.06545-.07544-.03248-.26186-.005-.38813.1682-.7739-.22682-.90655-.882-.84119a2.1424,2.1424,0,0,1-.70835-.1848c.24847-.19819.47057-.49481.752-.57022a4.70145,4.70145,0,0,1,1.18352-.02437c2.44622,0,4.8926-.0148,7.33853.01169.52987.00574.67574-.169.654-.67346-.04521-1.05016-.03984-2.10249-.05525-3.15393-1.03682-.05071-2.07353-.104-3.11054-.15037-.26393-.01181-.52971.012-.7931-.0047a7.05418,7.05418,0,0,1-1.52426-.15826c-.17936-.05252,1.32912-1.41263,1.82211-1.421.99143-.01677,1.98387-.02421,2.97482.00331.479.0133.71979-.07972.68945-.63825-.04656-.857-.03328-1.71894-.00719-2.57763.037-1.21674.945-1.89692,1.70142-2.66512.09249.10732.26443.21383.26555.3221.01711,1.65268.02172,3.30568.00473,4.95836-.004.39332.06535.62092.52318.59695.84707-.04435,1.69561-.06049,2.54355-.08837.03824-.77753.10195-1.55481.10952-2.33264.01673-1.7188.0052-3.43788.0052-5.15684a3.41186,3.41186,0,0,1,.01145-.79057c.09525-.38927-.357-1.11128.33722-1.11747.86207-.0077.41275.79993.42238,1.21656C24.4735,16.32211,24.44714,18.43837,24.44714,20.554Zm-.79357,5.59477c0-.52645-.01884-1.05379.00569-1.57909.02139-.45792-.20888-.54143-.59921-.51466-.83658.05737-1.67479.09095-2.51233.13428-.02281.78023-.04838,1.5604-.06711,2.34072-.00789.32885.01678.65928-.00568.98677-.03139.45783.20813.554.598.51389a5.3955,5.3955,0,0,1,.5919-.0033C23.6527,28.04283,23.6527,28.043,23.65357,26.14879Zm4.02722,4.6352c-.06471-.62711.09532-1.52066-.2578-1.83179-.37586-.33116-1.23752-.11235-1.88715-.13058-.19726-.00554-.39586.01225-.592-.00347-.46928-.03763-.50946.23708-.5024.60957.01744.921.0198,1.84279-.001,2.76361-.00868.38461.0523.63932.51315.60007.196-.0167.39476.00241.592-.00375.6487-.02027,1.51308.19574,1.88359-.13686C27.78108,32.33485,27.61631,31.44334,27.68079,30.784Z"/><circle cx="42.40163" cy="28.32552" r="0.89276"/><circle cx="24.07586" cy="47.10724" r="0.89276"/><circle cx="5.59837" cy="28.54625" r="0.89276"/><circle cx="24.06959" cy="0.89276" r="0.89276"/></svg>