<svg id="Layer_1" data-name="Layer 1" xmlns="http://www.w3.org/2000/svg" viewBox="0 0 48 48"><defs><style>.cls-1{fill:#152f53;}.cls-2{fill:#d2222a;}.cls-3{fill:#0c8f59;}</style></defs><title>_</title><path class="cls-1" d="M43.27445,35.41262V28.19979c-1.97725,1.09852-3.8457,1.74189-4.83094,3.84628a9.29183,9.29183,0,0,1-5.341,5.01894c-3.089,1.10571-5.69869-.5087-6.0083-3.77079-.42652-4.494,1.50978-7.94234,5.0599-10.48852a5.45378,5.45378,0,0,1,6.17834-.31031l5.04592-2.92655V13.97093l1.7246-1.06036a23.44617,23.44617,0,0,1,2.31635,15.625c-2.29527,11.33906-10.85028,18.787-22.33041,19.446V46.04251Z"/><path class="cls-2" d="M10.4389,9.27563,5.55743,12.0437l-1.732-.959a23.2889,23.2889,0,0,1,10.80413-9.2333c11.1567-4.42856,23.10506-.67228,29.25621,9.18442l-1.26128.89492c-.20868.011-.29452.04334-.34523.01429-6.02476-3.4497-12.04691-6.904-18.29915-10.48985L17.632,5.08805l4.112,2.43238a12.25334,12.25334,0,0,1,7.38441,1.11363c1.81553.95556,3.14256,2.29059,3.10533,4.51193-.03572,2.13159-1.35545,3.44138-3.10654,4.28946a11.42742,11.42742,0,0,1-10.17083.09036,5.635,5.635,0,0,1-3.509-5.3001Z"/><path class="cls-3" d="M2.84874,13.0793,4.363,14.10751V35.28213l6.29913,3.70995c.3884-2.6305.406-4.74474-.98468-6.74786A8.99117,8.99117,0,0,1,8.22313,26.095c.32223-3.3599,2.69526-4.97807,5.88451-3.97778,4.48117,1.40549,7.88838,8.15225,6.18761,12.4984a16.7453,16.7453,0,0,1-2.2804,3.17019v5.49676l4.63038,2.81217v1.8945A23.17281,23.17281,0,0,1,9.52492,43.23882C.68595,36.15991-2.77546,24.29919,2.84874,13.0793Z"/></svg>