<?xml version="1.0" encoding="utf-8"?>
<!-- Generator: Adobe Illustrator 22.0.0, SVG Export Plug-In . SVG Version: 6.00 Build 0)  -->
<svg version="1.1" id="Layer_1" xmlns="http://www.w3.org/2000/svg" xmlns:xlink="http://www.w3.org/1999/xlink" x="0px" y="0px"
	 viewBox="0 0 90 60" style="enable-background:new 0 0 90 60;" xml:space="preserve">
<style type="text/css">
	.st0{fill:#152F53;}
	.st1{fill:#D2222A;}
	.st2{fill:#0C8F59;}
</style>
<title>_</title>
<path class="st0" d="M64.3,41.4v-7.2c-2,1.1-3.8,1.7-4.8,3.8c-1,2.3-2.9,4.1-5.3,5c-3.1,1.1-5.7-0.5-6-3.8
	c-0.4-4.5,1.5-7.9,5.1-10.5c1.8-1.4,4.3-1.5,6.2-0.3l5-2.9V20l1.7-1.1c2.6,4.8,3.4,10.3,2.3,15.6C66.1,45.9,57.6,53.3,46.1,54V52
	L64.3,41.4z"/>
<path class="st1" d="M31.4,15.3L26.6,18l-1.7-1c2.6-4.1,6.3-7.4,10.8-9.2C46.8,3.4,58.7,7.2,64.9,17l-1.3,0.9c-0.2,0-0.3,0-0.3,0
	c-6-3.4-12-6.9-18.3-10.5l-6.3,3.6l4.1,2.4c2.5-0.4,5.1,0,7.4,1.1c1.8,1,3.1,2.3,3.1,4.5c0,2.1-1.4,3.4-3.1,4.3
	c-3.2,1.6-7,1.7-10.2,0.1c-2.1-0.9-3.5-3-3.5-5.3L31.4,15.3z"/>
<path class="st2" d="M23.8,19.1l1.5,1v21.2l6.3,3.7c0.4-2.6,0.4-4.7-1-6.7c-1.2-1.8-1.7-4-1.5-6.1c0.3-3.4,2.7-5,5.9-4
	c4.5,1.4,7.9,8.2,6.2,12.5c-0.6,1.1-1.4,2.2-2.3,3.2v5.5l4.6,2.8V54c-4.8-0.2-9.3-1.9-13.1-4.8C21.7,42.2,18.2,30.3,23.8,19.1z"/>
</svg>
