<svg id="Layer_1" data-name="Layer 1" xmlns="http://www.w3.org/2000/svg" viewBox="0 0 48 48"><defs><style>.cls-1{fill:#002f87;}</style></defs><title>_</title><polygon class="cls-1" points="14.163 35.615 13.102 35.615 0 24.775 7.269 24.775 14.085 30.971 14.163 35.615"/><path class="cls-1" d="M15.75257,33.18532V31.5581L4.088,18.57835h8.86263l5.381,10.84878s-.07692.81018-.301.954a10.96377,10.96377,0,0,0-.08023,2.7306Z"/><path class="cls-1" d="M19.8439,32.81418V30.08575L12.497,12.385H22.7272l.75118,15.49065-.98183.953a3.23578,3.23578,0,0,0-.30209,1.77318,6.69056,6.69056,0,0,1,.07464,1.62277Z"/><polygon class="cls-1" points="33.838 35.615 34.894 35.615 48 24.775 40.724 24.775 33.907 30.971 33.838 35.615"/><path class="cls-1" d="M32.24183,33.18532V31.5581l11.6657-12.97975H35.04821L29.66508,29.42713s.07578.81018.3054.954a11.055,11.055,0,0,1,.07578,2.7306Z"/><path class="cls-1" d="M28.14936,32.81418V30.08575L35.49844,12.385H25.27166l-.75678,15.49065.98971.953a3.2449,3.2449,0,0,1,.29981,1.77318,6.66632,6.66632,0,0,0-.07578,1.62277Z"/></svg>