<?xml version="1.0" encoding="utf-8"?>
<!-- Generator: Adobe Illustrator 22.0.0, SVG Export Plug-In . SVG Version: 6.00 Build 0)  -->
<svg version="1.1" id="Layer_1" xmlns="http://www.w3.org/2000/svg" xmlns:xlink="http://www.w3.org/1999/xlink" x="0px" y="0px"
	 viewBox="0 0 90 60" style="enable-background:new 0 0 90 60;" xml:space="preserve">
<style type="text/css">
	.st0{fill:#002F87;}
</style>
<title>_</title>
<polygon class="st0" points="35.2,41.6 34.1,41.6 21,30.8 28.3,30.8 35.1,37 "/>
<path class="st0" d="M36.8,39.2v-1.6l-11.7-13H34l5.4,10.8c0,0-0.1,0.8-0.3,1c-0.1,0.9-0.2,1.8-0.1,2.7L36.8,39.2z"/>
<path class="st0" d="M40.8,38.8v-2.7l-7.3-17.7h10.2l0.8,15.5l-1,1c-0.3,0.6-0.4,1.2-0.3,1.8c0.1,0.5,0.1,1.1,0.1,1.6L40.8,38.8z"/>
<polygon class="st0" points="54.8,41.6 55.9,41.6 69,30.8 61.7,30.8 54.9,37 "/>
<path class="st0" d="M53.2,39.2v-1.6l11.7-13H56l-5.4,10.8c0,0,0.1,0.8,0.3,1c0.1,0.9,0.2,1.8,0.1,2.7L53.2,39.2z"/>
<path class="st0" d="M49.1,38.8v-2.7l7.3-17.7H46.3l-0.8,15.5l1,1c0.3,0.6,0.4,1.2,0.3,1.8c-0.1,0.5-0.1,1.1-0.1,1.6L49.1,38.8z"/>
</svg>
