<?xml version="1.0" encoding="utf-8"?>
<!-- Generator: Adobe Illustrator 22.0.0, SVG Export Plug-In . SVG Version: 6.00 Build 0)  -->
<svg version="1.1" id="Layer_1" xmlns="http://www.w3.org/2000/svg" xmlns:xlink="http://www.w3.org/1999/xlink" x="0px" y="0px"
	 viewBox="0 0 90 60" style="enable-background:new 0 0 90 60;" xml:space="preserve">
<style type="text/css">
	.st0{fill:#FF6700;}
</style>
<title>_</title>
<path class="st0" d="M64.1,29.8c0.6,0.4,1.1,0.7,1.6,1.1c2.6,1.8,3.8,5,3,8.1c-0.5,2.4-2.2,4.3-4.5,5c-2.6,1-5.3,1.4-8.1,1.2
	c-2.7-0.1-5.5-0.5-8.2-0.7c-0.5,0-0.8-0.2-0.8-0.8c0-9.3,0-18.6,0-27.9c0-0.2,0-0.3,0-0.5c0.3,0,0.5,0,0.8,0c4,0,8-0.1,12,0
	c1.2,0,2.4,0.3,3.6,0.7c4.5,1.8,5.8,7.9,2.6,11.8C65.6,28.4,64.9,29.1,64.1,29.8z M53.7,32.9c0,1.6,0,3.1,0,4.6c0,1.6,0,1.6,1.6,1.8
	c0.2,0,0.3,0.1,0.5,0.1c1.5,0.2,3.1,0.1,4.6-0.4c2.3-0.8,3-3.1,1.3-4.9c-0.4-0.5-0.9-0.9-1.5-1C58.1,32.9,56,32.9,53.7,32.9z
	 M53.7,27.1c0.3,0,0.5,0.1,0.7,0.1c1.7,0,3.4,0,5,0c0.2,0,0.4-0.1,0.5-0.2c0.8-0.6,1.4-1.5,1.6-2.5c0.5-1.3-0.3-2.8-1.6-3.3
	C59.6,21,59.3,21,59,21c-1.6-0.1-3.1,0-4.7,0c-0.2,0-0.5,0.2-0.5,0.4C53.7,23.2,53.7,25.1,53.7,27.1z"/>
<path class="st0" d="M43.3,16c-0.3,1.7-0.7,3.5-1,5.2c-0.1,0.5-0.4,0.4-0.8,0.3c-2.1-0.6-4.4-0.9-6.6-0.9c-3.6,0.1-5.9,1.9-6.7,5.4
	c-0.7,2.8-0.6,5.8,0.1,8.6c0.5,2.8,3,4.9,5.9,4.8c1.1,0,2.3-0.1,3.4-0.2c0.5,0,0.7-0.3,0.7-0.8c0-1.6,0-3.2,0-4.8
	c0-0.5-0.2-0.7-0.7-0.7c-1.4,0-2.7,0-4.1,0c0-0.2,0-0.3,0-0.5c0.1-1.8,0.2-3.5,0.3-5.3h10.8c0,0.3,0,0.5,0,0.8c0,4.9,0,9.8,0,14.6
	c0,0.4,0.1,0.8-0.5,1c-3.8,1.4-8,1.9-12,1.5c-6-0.8-9.3-3.9-10.6-9.8c-0.9-3.9-0.8-8.1,0.4-11.9c1.6-5.1,5.3-7.7,10.5-8.3
	c3.5-0.3,6.9,0,10.3,0.9C43,15.8,43.1,15.9,43.3,16z"/>
</svg>
