<svg id="Layer_1" data-name="Layer 1" xmlns="http://www.w3.org/2000/svg" viewBox="0 0 48 48"><defs><style>.cls-1{fill:#ff6700;}</style></defs><title>_</title><path class="cls-1" d="M43.13481,23.77389c.56416.38906,1.12794.73794,1.64787,1.1431a7.67012,7.67012,0,0,1,3.02723,8.05659,6.78134,6.78134,0,0,1-4.482,5.0303,18.498,18.498,0,0,1-8.08467,1.193c-2.73842-.129-5.466-.4832-8.19936-.7281-.51728-.04635-.79451-.18921-.79314-.81356q.03043-13.93226.0157-27.86462c0-.15524.02068-.31049.036-.52573.28706-.017.545-.04552.803-.0457,4.00351-.00271,8.00815-.05441,12.00987.03044a10.23729,10.23729,0,0,1,3.57249.69985c4.5376,1.84738,5.84345,7.91679,2.57822,11.76608A29.46192,29.46192,0,0,1,43.13481,23.77389ZM32.68508,26.94207c0,1.58612,0,3.07209,0,4.55806,0,1.61417.00013,1.61356,1.63814,1.77723.15885.01587.31563.05453.4746.06687a10.88768,10.88768,0,0,0,4.57948-.37368c2.34533-.83573,2.95353-3.067,1.30357-4.94163a2.73328,2.73328,0,0,0-1.516-1.03782C37.06963,26.87185,34.96359,26.94207,32.68508,26.94207Zm.02058-5.88962c.287.025.494.05849.701.05863,1.67968.00115,3.35944.00248,5.03893-.01714a.88636.88636,0,0,0,.49365-.225,4.31227,4.31227,0,0,0,1.59307-2.50877,2.57411,2.57411,0,0,0-2.55275-3.39369c-1.56961-.0748-3.14569-.033-4.71817-.00388-.18758.00347-.52919.24949-.53181.38814C32.694,17.23773,32.70566,19.1256,32.70566,21.05245Z"/><path class="cls-1" d="M22.34583,9.9749c-.33195,1.74861-.65731,3.46961-.98607,5.18995-.09916.5189-.43856.41215-.797.31336a21.9028,21.9028,0,0,0-6.62411-.90494c-3.64819.12924-5.90685,1.87776-6.73783,5.42544a17.62568,17.62568,0,0,0,.09662,8.55254A5.92042,5.92042,0,0,0,13.19582,33.372a27.90029,27.90029,0,0,0,3.4213-.20543c.47885-.03455.67475-.28433.66646-.78906-.02631-1.60056-.02215-3.202-.00265-4.80272.00588-.48283-.16233-.65868-.65016-.65024-1.35337.02341-2.70741.00812-4.09523.00812a3.17939,3.17939,0,0,1-.04948-.46187c.10664-1.75414.21888-3.50793.33328-5.31754h10.776c.01761.27755.04814.53577.0483.794q.0043,7.32453-.0002,14.64906c-.00029.38213.09539.76552-.4621.953a26.2176,26.2176,0,0,1-12.02966,1.49931c-5.97817-.82513-9.29223-3.9167-10.56629-9.84969a22.95923,22.95923,0,0,1,.42766-11.93443c1.61787-5.07771,5.28934-7.70138,10.46321-8.3421a28.43471,28.43471,0,0,1,10.29818.86967C21.95105,9.8352,22.12177,9.9025,22.34583,9.9749Z"/></svg>