<svg id="Layer_1" data-name="Layer 1" xmlns="http://www.w3.org/2000/svg" viewBox="0 0 48 48"><defs><style>.cls-1{fill:#34a853;}.cls-2{fill:#ea4335;}.cls-3{fill:#fbbc05;}.cls-4{fill:#4285f4;}</style></defs><title>_</title><path class="cls-1" d="M32.51594,36.0827a14.82987,14.82987,0,0,1-7.97049,2.09912A14.14714,14.14714,0,0,1,11.076,28.43568l-8.073,6.18923A23.926,23.926,0,0,0,24.54545,48a22.85737,22.85737,0,0,0,15.63768-5.98136Z"/><path class="cls-2" d="M3.00639,13.3685l8.07668,6.17631A14.14672,14.14672,0,0,1,24.54545,9.81818a13.87451,13.87451,0,0,1,8.83634,3.1636L40.36364,6A23.9659,23.9659,0,0,0,3.00639,13.3685Z"/><path class="cls-3" d="M10.36364,24a14.22011,14.22011,0,0,1,.71943-4.45519L3.00639,13.3685a24.195,24.195,0,0,0,0,21.263l8.07668-6.17631A14.21982,14.21982,0,0,1,10.36364,24Z"/><path class="cls-4" d="M24.54545,19.63636v9.27273H37.41817a10.80857,10.80857,0,0,1-4.90223,7.17361l7.66719,5.93594C44.58818,37.92354,47.45455,31.82313,47.45455,24a19.91049,19.91049,0,0,0-.54546-4.36364Z"/></svg>