<?xml version="1.0" encoding="utf-8"?>
<!-- Generator: Adobe Illustrator 22.0.0, SVG Export Plug-In . SVG Version: 6.00 Build 0)  -->
<svg version="1.1" id="Layer_1" xmlns="http://www.w3.org/2000/svg" xmlns:xlink="http://www.w3.org/1999/xlink" x="0px" y="0px"
	 viewBox="0 0 90 60" style="enable-background:new 0 0 90 60;" xml:space="preserve">
<style type="text/css">
	.st0{fill:#34A853;}
	.st1{fill:#EA4335;}
	.st2{fill:#FBBC05;}
	.st3{fill:#4285F4;}
</style>
<title>_</title>
<path class="st0" d="M53.5,42.1c-2.4,1.4-5.2,2.2-8,2.1c-6.1,0-11.6-3.9-13.5-9.7L24,40.6C28,48.8,36.4,54,45.5,54
	c5.8,0.1,11.4-2.1,15.6-6L53.5,42.1z"/>
<path class="st1" d="M24,19.4l8.1,6.2c1.9-5.8,7.3-9.7,13.5-9.7c3.2,0,6.3,1.1,8.8,3.2l7-7c-9.9-8.8-25.1-7.8-33.8,2.1
	C26.1,15.7,24.9,17.5,24,19.4z"/>
<path class="st2" d="M31.4,30c0-1.5,0.2-3,0.7-4.5L24,19.4c-3.3,6.7-3.3,14.6,0,21.3l8.1-6.2C31.6,33,31.4,31.5,31.4,30z"/>
<path class="st3" d="M45.5,25.6v9.3h12.9c-0.6,3-2.3,5.6-4.9,7.2l7.7,5.9c4.4-4.1,7.3-10.2,7.3-18c0-1.5-0.2-2.9-0.5-4.4H45.5z"/>
</svg>
