<svg id="Layer_1" data-name="Layer 1" xmlns="http://www.w3.org/2000/svg" viewBox="0 0 48 48"><defs><style>.cls-1{fill:#3794d3;}.cls-2{fill:#d91422;}.cls-3{fill:#f3bb1b;}</style></defs><title>_</title><path class="cls-1" d="M10.50766,16.54082c2.31544.23723,4.523.467,6.73168.68508a6.51289,6.51289,0,0,0,.80968-.01745,4.08756,4.08756,0,0,0-.29013-.861c-.95476-1.57672-1.97824-3.11369-2.88246-4.71821a5.685,5.685,0,0,1-.58677-2.02011c-.11132-.844.08-1.07994.93542-.96375a17.33525,17.33525,0,0,1,3.43857.805,19.08848,19.08848,0,0,1,6.03693,3.66036c.99107.85269.96394.84449,2.16358.11711,1.37405-.83314,2.87157-1.47444,4.1967-2.374a67.73861,67.73861,0,0,1,7.81349-4.58556A19.0772,19.0772,0,0,0,40.5555,5.21973c.15829-.10086.29643-.2848.4629-.31146.45013-.07209,1.04792-.26442,1.32524-.05771a1.38643,1.38643,0,0,1,.132,1.27345,32.38805,32.38805,0,0,1-1.70493,3.26016c-.66462,1.14324-1.34509,2.28435-2.11467,3.35752-.76989,1.07358-1.65263,2.0669-2.49725,3.086-.51373.61985-1.05985,1.21293-1.57186,1.83415-.69059.83787-.63657.94931.13957,1.74775a62.42329,62.42329,0,0,1,4.90926,5.24657,34.01733,34.01733,0,0,1,4.31683,6.96229c1.10484,2.5089,2.37275,4.946,3.569,7.41465a4.99784,4.99784,0,0,1,.30276.64208c.17461.55-.0635.79973-.65068.66853a4.25523,4.25523,0,0,1-.93975-.32163,26.7227,26.7227,0,0,1-3.28063-1.68354c-2.23056-1.51047-4.392-3.12438-6.56086-4.7242-2.24791-1.6581-4.4642-3.359-6.70823-5.02248-1.29256-.95814-2.6255-1.862-3.91409-2.82526-.51757-.38691-.84525-.3419-1.06965.26246a24.881,24.881,0,0,0-.85667,2.39454,30.37919,30.37919,0,0,1-3.02362,6.56117,49.71168,49.71168,0,0,1-3.09126,5.09885,16.2568,16.2568,0,0,1-2.61385,2.7693c-.76377.67539-1.10355.469-1.16074-.593a27.14959,27.14959,0,0,1,.72378-7.31057c.31418-1.42882.59458-2.86854.99134-4.27481.43259-1.53327.98085-3.034,1.48135-4.548.22293-.67438.4854-1.33768.67035-2.02212.22115-.81845.0704-.96265-.80565-1.04413-2.96264-.27555-5.94357-.438-8.87962-.88981-2.42039-.3725-4.79087-1.07906-7.173-1.67911-.33-.08313-.864-.438-.84254-.60944a1.38767,1.38767,0,0,1,.63941-.97216A21.53085,21.53085,0,0,1,4.83424,17.3088C6.71426,16.88648,8.66426,16.77567,10.50766,16.54082Z"/><path class="cls-2" d="M9.13714,32.03161c1.78331-.07077,2.50453.79283,2.94073,2.30594a9.92725,9.92725,0,0,1,.53319,3.73737,4.98756,4.98756,0,0,1-2.46624,3.905,3.26187,3.26187,0,0,1-1.73424.47265A4.04764,4.04764,0,0,1,4.64075,40.2887c-1.44981-3.197-.14382-7.63568,3.93818-8.25356A3.77042,3.77042,0,0,1,9.13714,32.03161Z"/><path class="cls-3" d="M11.1683,24.30583c1.31568-.02568,2.00486.63741,2.25153,2.13953a2.05032,2.05032,0,0,1-1.64362,2.11044,4.80687,4.80687,0,0,1-1.10508.21156A2.16541,2.16541,0,0,1,8.25631,26.731a2.21857,2.21857,0,0,1,2.206-2.42216C10.69581,24.28763,10.93288,24.30583,11.1683,24.30583Z"/></svg>