<?xml version="1.0" encoding="utf-8"?>
<!-- Generator: Adobe Illustrator 22.0.0, SVG Export Plug-In . SVG Version: 6.00 Build 0)  -->
<svg version="1.1" id="Layer_1" xmlns="http://www.w3.org/2000/svg" xmlns:xlink="http://www.w3.org/1999/xlink" x="0px" y="0px"
	 viewBox="0 0 90 60" style="enable-background:new 0 0 90 60;" xml:space="preserve">
<style type="text/css">
	.st0{fill:#3794D3;}
	.st1{fill:#D91422;}
	.st2{fill:#F3BB1B;}
</style>
<title>_</title>
<path class="st0" d="M31.5,22.5c2.3,0.2,4.5,0.5,6.7,0.7c0.3,0,0.5,0,0.8,0c-0.1-0.3-0.2-0.6-0.3-0.9c-1-1.6-2-3.1-2.9-4.7
	c-0.3-0.6-0.5-1.3-0.6-2c-0.1-0.8,0.1-1.1,0.9-1c1.2,0.2,2.3,0.4,3.4,0.8c2.2,0.8,4.3,2.1,6,3.7c1,0.9,1,0.8,2.2,0.1
	c1.4-0.8,2.9-1.5,4.2-2.4c2.5-1.7,5.1-3.2,7.8-4.6c0.6-0.3,1.1-0.7,1.7-1c0.2-0.1,0.3-0.3,0.5-0.3c0.5-0.1,1-0.3,1.3-0.1
	c0.2,0.4,0.3,0.9,0.1,1.3c-0.5,1.1-1.1,2.2-1.7,3.3c-0.7,1.1-1.3,2.3-2.1,3.4c-0.8,1.1-1.7,2.1-2.5,3.1c-0.5,0.6-1.1,1.2-1.6,1.8
	c-0.7,0.8-0.6,0.9,0.1,1.7c1.7,1.7,3.4,3.4,4.9,5.2c1.7,2.1,3.2,4.5,4.3,7c1.1,2.5,2.4,4.9,3.6,7.4c0.1,0.2,0.2,0.4,0.3,0.6
	c0.2,0.5-0.1,0.8-0.7,0.7c-0.3-0.1-0.6-0.2-0.9-0.3c-1.1-0.5-2.2-1-3.3-1.7c-2.2-1.5-4.4-3.1-6.6-4.7c-2.2-1.7-4.5-3.4-6.7-5
	c-1.3-1-2.6-1.9-3.9-2.8c-0.5-0.4-0.8-0.3-1.1,0.3c-0.3,0.8-0.6,1.6-0.9,2.4c-0.7,2.3-1.8,4.5-3,6.6c-0.9,1.8-2,3.5-3.1,5.1
	c-0.8,1-1.6,2-2.6,2.8c-0.8,0.7-1.1,0.5-1.2-0.6c-0.1-2.5,0.2-4.9,0.7-7.3c0.3-1.4,0.6-2.9,1-4.3c0.4-1.5,1-3,1.5-4.5
	c0.2-0.7,0.5-1.3,0.7-2c0.2-0.8,0.1-1-0.8-1c-3-0.3-5.9-0.4-8.9-0.9c-2.4-0.4-4.8-1.1-7.2-1.7c-0.3-0.1-0.9-0.4-0.8-0.6
	c0.1-0.4,0.3-0.8,0.6-1c1.3-0.7,2.7-1.2,4.1-1.6C27.7,22.9,29.7,22.8,31.5,22.5z"/>
<path class="st1" d="M30.1,38c1.8-0.1,2.5,0.8,2.9,2.3c0.4,1.2,0.6,2.5,0.5,3.7c-0.1,1.6-1.1,3.1-2.5,3.9c-0.5,0.3-1.1,0.5-1.7,0.5
	c-1.6,0.1-3-0.8-3.8-2.2c-1.4-3.2-0.1-7.6,3.9-8.3C29.8,38,30,38,30.1,38z"/>
<path class="st2" d="M32.2,30.3c1.3,0,2,0.6,2.3,2.1c0,1-0.6,1.9-1.6,2.1c-0.4,0.1-0.7,0.2-1.1,0.2c-1.2,0.1-2.3-0.7-2.4-1.9
	c0,0,0-0.1,0-0.1c-0.1-1.2,0.8-2.3,2-2.4c0.1,0,0.1,0,0.2,0C31.7,30.3,31.9,30.3,32.2,30.3z"/>
</svg>
