<svg id="Layer_1" data-name="Layer 1" xmlns="http://www.w3.org/2000/svg" viewBox="0 0 48 48"><defs><style>.cls-1{fill:#ed1b24;}</style></defs><title>_</title><path class="cls-1" d="M34.26379,10.097H13.7809C13.34709,5.1263,17.99261.25223,23.55848.01062A10.17417,10.17417,0,0,1,34.26379,10.097ZM20.664,6.63286a2.37963,2.37963,0,0,0-2.37823-2.32358A2.40365,2.40365,0,0,0,15.953,6.6862,2.35569,2.35569,0,1,0,20.664,6.63286Zm11.36562-.00443A2.355,2.355,0,0,0,27.32009,6.69a2.355,2.355,0,1,0,4.70955-.06153Z"/><path class="cls-1" d="M37.58319,24.15262V14.11945c5.51988-.86587,10.21424,3.54636,9.37153,10.03341-.57934,0-1.18117.01884-1.7812-.00593-.48449-.02-.69925.159-.67057.65853.02679.46677-.01945.93833.0182,1.4036a1.34044,1.34044,0,0,0,.25567.583c.16549.24905.504.45437.53755.70886.35157,2.66385.657,5.33379.983,8.068H37.85325c.1375-1.25608.26579-2.46588.40331-3.67464q.253-2.22348.52318-4.445a1.03991,1.03991,0,0,1,.18931-.55122c.17134-.18831.59227-.28718.60909-.45422a11.00352,11.00352,0,0,0-.01243-2.012c-.009-.10745-.34815-.24963-.54411-.26654C38.56386,24.12573,38.10039,24.15262,37.58319,24.15262Z"/><path class="cls-1" d="M10.07322,35.57038H1.69189c.33427-2.75372.66142-5.451.98983-8.14816.01765-.14493.00456-.38879.07539-.418,1.45156-.59939.40206-1.81417.8452-2.79845H1.141C.04179,19.19339,3.67614,13.23031,10.39739,14.0978V24.14968H8.37555c0,.82339-.00514,1.54607.00562,2.26852.00159.10658.06928.29955.12188.30507.99508.10452.711.92437.78525,1.47637.29283,2.17568.53115,4.35876.781,6.5401A7.79843,7.79843,0,0,1,10.07322,35.57038Z"/><path class="cls-1" d="M36.53629,20.23172h-5.643a7.10755,7.10755,0,0,0-2.76958-5.2693A6.63418,6.63418,0,0,0,23.68746,13.582c-3.47782.13995-5.89536,2.54107-6.61412,6.63335H11.559c0-2.24962-.13289-4.473.04733-6.67064a2.94574,2.94574,0,0,1,3.15723-2.378c3.07631-.01963,6.15282-.0067,9.22925-.00695,3.01783-.00025,6.0357-.00922,9.05349.003,2.03121.00825,3.34648,1.09486,3.46424,3.07417C36.628,16.21221,36.53629,18.19986,36.53629,20.23172Z"/><path class="cls-1" d="M30.86253,21.23538H36.399c0,2.09127.14847,4.16628-.0523,6.20693a2.91,2.91,0,0,1-3.06231,2.28807q-9.315.03894-18.6303-.00427a3.05507,3.05507,0,0,1-3.15732-2.93077c-.12532-1.827-.028-3.66932-.028-5.58692,1.80719,0,3.55941-.01878,5.30982.02874.17707.00481.445.38705.49942.63218A6.86559,6.86559,0,0,0,27.256,26.47275a6.77152,6.77152,0,0,0,3.43462-4.55539C30.74429,21.69418,30.80272,21.47214,30.86253,21.23538Z"/><path class="cls-1" d="M26.84235,36.56209h8.36228c.44824,2.50359.89893,5.02095,1.36186,7.60657H26.29906C26.47936,41.6442,26.65761,39.14859,26.84235,36.56209Z"/><path class="cls-1" d="M11.422,44.15421l1.35058-7.58272H21.1351l.55948,7.58272Z"/><path class="cls-1" d="M19.65062,16.1681c2.31286-.18054,2.30945-.17951,2.941,1.90289a32.76647,32.76647,0,0,0,1.5471,4.31293q.3811-1.31551.762-2.6311c.17023-.58961.34232-1.17872.507-1.76989.59207-2.126.59233-2.12707,2.93062-1.76973v8.45721H26.73394V19.27236l-.244-.016q-.45192,1.44716-.90447,2.89413c-.2021.64168-.45683,1.27112-.60225,1.92511-.146.65639-.56844.67431-1.10155.69179a.84708.84708,0,0,1-.98833-.7233,38.77659,38.77659,0,0,0-1.68161-4.73381V24.689h-1.5611Z"/><path class="cls-1" d="M22.35623,45.13966v2.84278H9.166a2.51866,2.51866,0,0,1,2.1758-2.94323c3.566-.04771,7.13309-.01,10.69974-.002A1.32474,1.32474,0,0,1,22.35623,45.13966Z"/><path class="cls-1" d="M38.8545,48H25.64562V45.08527c.39416-.02287.76632-.06345,1.13842-.06308q4.77739.0048,9.5548.02243A2.57827,2.57827,0,0,1,38.8545,48Z"/><path class="cls-1" d="M20.88667,35.61865h-6.881V30.67806h6.881Z"/><path class="cls-1" d="M33.99059,30.7053v4.96712c-.72995,0-1.44879,0-2.16763,0-1.34742-.00009-2.695-.0129-4.04217.00625-.49869.00709-.75491-.11845-.74316-.6854.02908-1.40285.00954-2.80671.00954-4.288Z"/><path class="cls-1" d="M10.08621,41.69146c-3.9097.26272-7.54483-1.98628-8.30144-5.11529h8.30144Z"/><path class="cls-1" d="M46.248,36.52623c-.9374,3.28472-4.60358,5.52006-8.356,5.14468V36.52623h8.356Z"/></svg>