<svg id="Layer_1" data-name="Layer 1" xmlns="http://www.w3.org/2000/svg" viewBox="0 0 57.94998 48"><defs><style>.cls-1{fill:#1a5dad;}.cls-2{fill:#fff;}.cls-3{fill:#ee293d;}</style></defs><title>_</title><g id="_Group_" data-name="&lt;Group&gt;"><path id="_Path_" data-name="&lt;Path&gt;" class="cls-1" d="M50.79461,24A24.02446,24.02446,0,1,1,26.77017,0,24.29515,24.29515,0,0,1,50.79461,24"/><path id="_Path_2" data-name="&lt;Path&gt;" class="cls-2" d="M32.18951,36.63157c10.264,4.22221,8.48272-6.44759,3.01162-14.61738a44.51339,44.51339,0,0,0-9.69575-10.34566C17.04772,5.49576,11.8266,9.2396,17.7989,21.41318c1.93093,3.936,4.41107,6.59245,6.34818,9.09637,1.47932,1.9116,4.36074,2.86878,3.34572,3.776-1.14385,1.02288-3.91354-3.48876-3.91354-3.48876a54.81324,54.81324,0,0,1-6.00468-8.71172C12.9834,13.834,13.64535,5.41284,21.9555,9.08109c7.05229,3.1147,13.78837,11.85045,16.49663,18.05419,1.251,2.86432,4.66145,14.19871-6.20108,9.61629"/><path id="_Path_3" data-name="&lt;Path&gt;" class="cls-3" d="M.27157,31.11442C4.787,28.1073,9.068,26.16571,16.35339,23.7596c10.23748-3.382,17.94275-5.65528,27.39625-10.4072,4.23159-2.12659,11.5742-6.89582,14.20034-11.042a48.36469,48.36469,0,0,1-4.32327,6.1094C40.79956,24.48081,13.47665,23.57012.45186,31.28089"/><path id="_Path_4" data-name="&lt;Path&gt;" class="cls-2" d="M6.82206,19.37582c4.13256.03243,3.72712-.0083,3.77541.04012.07224,0,3.29969,5.55829,3.29969,5.60618,0,.02375-.02412-1.97523-.02412-4.47525,0-.28874-.79448-1.13083-.77071-1.13083,1.17953,0,2.72128.02413,2.72128.02413-.57766.67374-.69306.61848-.69788,1.03477-.01629,1.33888-.0315,3.8131,0,6.59246.0045.41659.31317.57744.8189,1.29937H12.1629c-1.22834-2.04509-3.47918-5.88164-3.468-5.87083.01726.01759-.04849,2.40651.02351,4.33079.02436.636.3134.842.84357,1.41979,0,0,.60979-.01636-2.96272.02382,1.08379-.57744.93986-1.29913.93933-1.3232-.039-2.65915-.00807-4.93262-.00807-6.40033,0-.24054-.01637-.21679-.76264-1.13084"/><path id="_Path_5" data-name="&lt;Path&gt;" class="cls-2" d="M19.74333,23.48251c.347-1.20461.64345-2.28123.78413-2.98309a2.23029,2.23029,0,0,0-.72252-.98659l-.03243-.0672c2.20665.00714,4.51191.019,4.51191.019.60212,1.46774,1.97493,5.58172,3.01059,8.10824a1.27775,1.27775,0,0,0,.74666.79385c-1.87862-.02374-5.36494-.00767-5.34641-.02374.939-.84266.8186-.84266.40914-2.06934H20.16634c-.60211,1.39513.18763,2.05019.28874,2.04509-.66873.03448-2.93806,0-2.93806,0,1.22833-.86647,1.1558-1.13083,1.1558-1.13083.33751-1.20041.72847-2.51552,1.07071-3.70615l1.20544.0002c-.259.83055-.51792,1.66041-.51792,1.66041H22.7679L21.467,21.82192s-.259.83016-.518,1.66l-1.20544-.0002"/><path id="_Path_6" data-name="&lt;Path&gt;" class="cls-2" d="M39.92738,23.60271c.34634-1.20429.64311-2.28121.78349-2.98349a2.239,2.239,0,0,0-.7226-.98629l-.03265-.0669c2.20725.00716,4.51314.019,4.51314.019.60119,1.46775,1.97431,5.58194,3.00978,8.10825a1.277,1.277,0,0,0,.74637.79416c-1.87774-.02436-5.36415-.00769-5.34622-.02436.93963-.84173.81919-.84173.40975-2.06892H40.34977c-.60219,1.39541.18725,2.05017.28841,2.04549-.66818.03417-2.93787,0-2.93787,0,1.228-.86647,1.156-1.13113,1.156-1.13113.33751-1.20064.72854-2.51532,1.07108-3.70574h1.20514c-.25957.83046-.51739,1.66063-.51739,1.66063h2.33561L41.65,21.943s-.25814.82986-.51739,1.6598H39.92746"/><path id="_Path_7" data-name="&lt;Path&gt;" class="cls-2" d="M36.12771,21.63057c-.04819-1.70881,0-2.26208,0-2.26208-.747.60182-.37015.52507-2.23965.21672-5.38778-.889-5.7983,4.14091-2.86635,5.26919,2.46111.94732,3.33331,1.13289,2.96211,2.02076-.12043.28934-2.36007,1.34786-4.67186-.79362l.04758,2.98349a10.32863,10.32863,0,0,1,1.08439-.842,6.13977,6.13977,0,0,0,4.74418-.04848c3.44476-1.7561,1.7255-4.59872-1.95057-5.72618-3.05888-.93849-.16861-3.12816,2.86573-.79394"/><path id="_Path_8" data-name="&lt;Path&gt;" class="cls-2" d="M27.10837,2.17957a.19563.19563,0,1,1-.19564-.19533.19641.19641,0,0,1,.19564.19533"/><path id="_Path_9" data-name="&lt;Path&gt;" class="cls-2" d="M28.46525,5.14228a.241.241,0,1,1-.24084-.24024.24231.24231,0,0,1,.24084.24024"/><path id="_Path_10" data-name="&lt;Path&gt;" class="cls-2" d="M31.98579,9.98426a.24084.24084,0,0,1-.48167,0,.23568.23568,0,0,1,.23346-.24084.24842.24842,0,0,1,.24822.24084"/><path id="_Path_11" data-name="&lt;Path&gt;" class="cls-2" d="M26.326,6.81149a.19582.19582,0,1,1-.19562-.19571.19608.19608,0,0,1,.19562.19571"/><path id="_Path_12" data-name="&lt;Path&gt;" class="cls-2" d="M28.43468,7.92449a.19567.19567,0,1,1-.19539-.19541.19668.19668,0,0,1,.19539.19541"/><path id="_Path_13" data-name="&lt;Path&gt;" class="cls-2" d="M25.69444,4.81121a.24084.24084,0,1,1-.24083-.24083.24179.24179,0,0,1,.24083.24083"/><path id="_Path_14" data-name="&lt;Path&gt;" class="cls-2" d="M22.504,6.75138a.19579.19579,0,1,1-.19594-.19571.19662.19662,0,0,1,.19594.19571"/><path id="_Path_15" data-name="&lt;Path&gt;" class="cls-2" d="M23.07441,7.14194a.19594.19594,0,1,1-.19593-.195.1967.1967,0,0,1,.19593.195"/><path id="_Path_16" data-name="&lt;Path&gt;" class="cls-2" d="M23.64691,7.53311a.19582.19582,0,1,1-.1957-.195.19663.19663,0,0,1,.1957.195"/><path id="_Path_17" data-name="&lt;Path&gt;" class="cls-2" d="M22.77491,8.28531A.196.196,0,1,1,22.579,8.09a.197.197,0,0,1,.19592.19532"/><path id="_Path_18" data-name="&lt;Path&gt;" class="cls-2" d="M18.22836,11.47314a.19593.19593,0,1,1-.19593-.1957.19656.19656,0,0,1,.19593.1957"/><path id="_Path_19" data-name="&lt;Path&gt;" class="cls-2" d="M19.071,12.49609a.19594.19594,0,1,1-.19593-.19562.19676.19676,0,0,1,.19593.19562"/><path id="_Path_20" data-name="&lt;Path&gt;" class="cls-2" d="M18.40114,29.00781a.19567.19567,0,1,1-.19571-.19564.19634.19634,0,0,1,.19571.19564"/><path id="_Path_21" data-name="&lt;Path&gt;" class="cls-2" d="M18.52154,33.56333a.24084.24084,0,1,1-.24084-.24054.24164.24164,0,0,1,.24084.24054"/><path id="_Path_22" data-name="&lt;Path&gt;" class="cls-2" d="M15.93186,35.8961a.19563.19563,0,1,1-.19532-.19571.19662.19662,0,0,1,.19532.19571"/><path id="_Path_23" data-name="&lt;Path&gt;" class="cls-2" d="M12.83142,36.84142a.241.241,0,1,1-.24113-.24083.2421.2421,0,0,1,.24113.24083"/><path id="_Path_24" data-name="&lt;Path&gt;" class="cls-2" d="M12.199,34.73683a.24068.24068,0,1,1-.24052-.24083.24194.24194,0,0,1,.24052.24083"/><path id="_Path_25" data-name="&lt;Path&gt;" class="cls-2" d="M11.83822,36.07538a.196.196,0,1,1-.19593-.19562.19654.19654,0,0,1,.19593.19562"/><path id="_Path_26" data-name="&lt;Path&gt;" class="cls-2" d="M9.5195,34.963a.19566.19566,0,1,1-.19532-.1954.19667.19667,0,0,1,.19532.1954"/><path id="_Path_27" data-name="&lt;Path&gt;" class="cls-2" d="M17.618,38.72189a.19031.19031,0,0,1-.18793.19571.20338.20338,0,0,1-.20339-.19571.19566.19566,0,0,1,.39132,0"/><path id="_Path_28" data-name="&lt;Path&gt;" class="cls-2" d="M20.0571,36.9331a.23548.23548,0,0,1-.23347.24083.24841.24841,0,0,1-.24822-.24083.24085.24085,0,0,1,.48169,0"/><path id="_Path_29" data-name="&lt;Path&gt;" class="cls-2" d="M20.3362,39.23327a.20383.20383,0,0,1-.20307.196.19552.19552,0,1,1,0-.391.20319.20319,0,0,1,.20307.195"/><path id="_Path_30" data-name="&lt;Path&gt;" class="cls-2" d="M30.36,37.037a.19578.19578,0,1,1-.19532-.19532A.1967.1967,0,0,1,30.36,37.037"/><path id="_Path_31" data-name="&lt;Path&gt;" class="cls-2" d="M25.69444,38.69134a.19563.19563,0,1,1-.19563-.19564.1961.1961,0,0,1,.19563.19564"/><path id="_Path_32" data-name="&lt;Path&gt;" class="cls-2" d="M38.2486,41.06893a.19594.19594,0,1,1-.19564-.19566.19672.19672,0,0,1,.19564.19566"/><path id="_Path_33" data-name="&lt;Path&gt;" class="cls-2" d="M39.27134,31.81935a.24084.24084,0,1,1-.24084-.24084.2419.2419,0,0,1,.24084.24084"/><path id="_Path_34" data-name="&lt;Path&gt;" class="cls-2" d="M37.34605,33.12734a.19582.19582,0,1,1-.19623-.19533.19689.19689,0,0,1,.19623.19533"/><path id="_Path_35" data-name="&lt;Path&gt;" class="cls-2" d="M39.24283,33.50425a.24084.24084,0,1,1-.24084-.24054.242.242,0,0,1,.24084.24054"/><path id="_Path_36" data-name="&lt;Path&gt;" class="cls-2" d="M37.34605,35.835a.19582.19582,0,1,1-.19623-.1957.19662.19662,0,0,1,.19623.1957"/><path id="_Path_37" data-name="&lt;Path&gt;" class="cls-2" d="M42.252,30.51137a.19551.19551,0,1,1-.1957-.19532.19682.19682,0,0,1,.1957.19532"/><path id="_Path_38" data-name="&lt;Path&gt;" class="cls-2" d="M42.72669,31.69914a.235.235,0,0,1-.23277.24084.24823.24823,0,0,1-.2483-.24084.24054.24054,0,0,1,.48107,0"/><path id="_Path_39" data-name="&lt;Path&gt;" class="cls-2" d="M46.10665,33.11307a.24084.24084,0,1,1-.24083-.24083.24129.24129,0,0,1,.24083.24083"/><path id="_Path_40" data-name="&lt;Path&gt;" class="cls-2" d="M42.67372,35.62512a.196.196,0,1,1-.19632-.19562.19731.19731,0,0,1,.19632.19562"/><path id="_Path_41" data-name="&lt;Path&gt;" class="cls-2" d="M44.84145,33.57962a.19547.19547,0,1,1-.19532-.19562.19622.19622,0,0,1,.19532.19562"/><path id="_Path_42" data-name="&lt;Path&gt;" class="cls-2" d="M44.44214,36.73753a.19578.19578,0,1,1-.19532-.19564.19623.19623,0,0,1,.19532.19564"/><path id="_Path_43" data-name="&lt;Path&gt;" class="cls-2" d="M45.361,31.48929a.30109.30109,0,1,1-.30119-.30058.30243.30243,0,0,1,.30119.30058"/><path id="_Path_44" data-name="&lt;Path&gt;" class="cls-2" d="M45.05946,30.57249l-.08982.827-.82065.09035.82721.08981.09066.85749.09073-.85749.81257-.105-.82-.0752-.09067-.827"/><path id="_Path_45" data-name="&lt;Path&gt;" class="cls-2" d="M43.25233,36.72122a.301.301,0,1,1-.3009-.3006.30214.30214,0,0,1,.3009.3006"/><path id="_Path_46" data-name="&lt;Path&gt;" class="cls-2" d="M42.95285,35.8044l-.09067.827-.82012.09036.8275.09043.09072.85689.09067-.85689.81235-.10527-.82064-.07552-.08983-.827"/><path id="_Path_47" data-name="&lt;Path&gt;" class="cls-2" d="M20.79461,11.87878a.301.301,0,1,1-.30089-.30058.30212.30212,0,0,1,.30089.30058"/><path id="_Path_48" data-name="&lt;Path&gt;" class="cls-2" d="M20.49309,10.96156l-.09043.8269-.82064.09043.82809.08982.09043.8575.09-.8575.813-.10466-.82064-.07559-.08983-.8269"/><path id="_Path_49" data-name="&lt;Path&gt;" class="cls-2" d="M31.99392,4.601a.30074.30074,0,1,1-.30119-.30089.30265.30265,0,0,1,.30119.30089"/><path id="_Path_50" data-name="&lt;Path&gt;" class="cls-2" d="M31.6924,3.68293l-.08982.8272-.82064.09043.8281.09035.08981.85727.09067-.85727.81266-.10557-.82065-.07521-.09012-.8272"/><path id="_Path_51" data-name="&lt;Path&gt;" class="cls-2" d="M18.37832,41.53549a.3012.3012,0,1,1-.30089-.30093.30214.30214,0,0,1,.30089.30093"/><path id="_Path_52" data-name="&lt;Path&gt;" class="cls-2" d="M18.08453,40.61663l-.09.8272-.82043.09039.82788.0901.09035.85726.09013-.85726.81288-.105-.82034-.07553-.09043-.8272"/><path id="_Path_53" data-name="&lt;Path&gt;" class="cls-3" d="M57.94774,2.31057c-3.66112,10.86152-18.328,19.24868-30.67435,27.25568A154.78635,154.78635,0,0,0,7.33913,44.69134c-1.34191,1.248.27343-.46655-.24083.06035C14.203,36.57113,22.37558,31.6986,26.89176,28.63176,34.5296,23.44284,38.87384,22.13507,52.051,9.99756"/><path id="_Path_54" data-name="&lt;Path&gt;" class="cls-3" d="M3.32535,29.21969c-1.31482.64322-2.49269,1.2788-3.492,1.8992l.60807.22128a26.68788,26.68788,0,0,1,3.02852-1.59441"/><path id="_Path_55" data-name="&lt;Path&gt;" class="cls-3" d="M10.267,41.37452c-1.20193,1.049-2.4442,2.16876-3.69025,3.34249l-.055.82932a54.18228,54.18228,0,0,1,4.15986-3.7911"/><path id="_Path_56" data-name="&lt;Path&gt;" class="cls-2" d="M32.18951,36.63157c10.264,4.22221,8.48272-6.44759,3.01162-14.61738a43.67644,43.67644,0,0,0-9.69575-10.34566c-3.23532-2.3888-3.55111-2.58682-3.55111-2.58682C29.17913,12.51077,35.74266,20.932,38.45091,27.13589c1.251,2.86431,4.66146,14.19871-6.20109,9.6163"/></g></svg>