<?xml version="1.0" encoding="utf-8"?>
<!-- Generator: Adobe Illustrator 22.0.0, SVG Export Plug-In . SVG Version: 6.00 Build 0)  -->
<svg version="1.1" id="Layer_1" xmlns="http://www.w3.org/2000/svg" xmlns:xlink="http://www.w3.org/1999/xlink" x="0px" y="0px"
	 viewBox="0 0 90 60" style="enable-background:new 0 0 90 60;" xml:space="preserve">
<style type="text/css">
	.st0{fill:#1A5DAD;}
	.st1{fill:#FFFFFF;}
	.st2{fill:#EE293D;}
</style>
<title>_</title>
<g id="_Group_">
	<path id="_Path_" class="st0" d="M66.8,30c0,13.3-10.7,24-24,24s-24-10.7-24-24s10.7-24,24-24c0,0,0,0,0,0
		C56,6.1,66.7,16.8,66.8,30"/>
	<path id="_Path_2" class="st1" d="M48.2,42.6c10.3,4.2,8.5-6.4,3-14.6c-2.7-3.9-5.9-7.4-9.7-10.3c-8.5-6.2-13.7-2.4-7.7,9.7
		c1.9,3.9,4.4,6.6,6.3,9.1c1.5,1.9,4.4,2.9,3.3,3.8c-1.1,1-3.9-3.5-3.9-3.5c-2.3-2.7-4.3-5.6-6-8.7c-4.6-8.3-3.9-16.7,4.4-13
		c7.1,3.1,13.8,11.9,16.5,18.1c1.3,2.9,4.7,14.2-6.2,9.6"/>
	<path id="_Path_3" class="st2" d="M16.3,37.1c4.5-3,8.8-4.9,16.1-7.4c10.2-3.4,17.9-5.7,27.4-10.4c4.2-2.1,11.6-6.9,14.2-11
		c-1.3,2.1-2.7,4.2-4.3,6.1C56.8,30.5,29.5,29.6,16.5,37.3"/>
	<path id="_Path_4" class="st1" d="M22.8,25.4c4.1,0,3.7,0,3.8,0c0.1,0,3.3,5.6,3.3,5.6c0,0,0-2,0-4.5c0-0.3-0.8-1.1-0.8-1.1
		c1.2,0,2.7,0,2.7,0c-0.6,0.7-0.7,0.6-0.7,1c0,1.3,0,3.8,0,6.6c0,0.4,0.3,0.6,0.8,1.3h-3.8c-1.2-2-3.5-5.9-3.5-5.9c0,0,0,2.4,0,4.3
		c0,0.6,0.3,0.8,0.8,1.4c0,0,0.6,0-3,0c1.1-0.6,0.9-1.3,0.9-1.3c0-2.7,0-4.9,0-6.4C23.6,26.3,23.5,26.3,22.8,25.4"/>
	<path id="_Path_5" class="st1" d="M35.8,29.5c0.3-1.2,0.6-2.3,0.8-3c-0.1-0.4-0.4-0.7-0.7-1l0-0.1c2.2,0,4.5,0,4.5,0
		c0.6,1.5,2,5.6,3,8.1c0.1,0.4,0.4,0.7,0.7,0.8c-1.9,0-5.4,0-5.3,0c0.9-0.8,0.8-0.8,0.4-2.1h-2.9c-0.6,1.4,0.2,2.1,0.3,2
		c-0.7,0-2.9,0-2.9,0c1.2-0.9,1.2-1.1,1.2-1.1C35,32,35.4,30.7,35.8,29.5l1.2,0c-0.3,0.8-0.5,1.7-0.5,1.7h2.3l-1.3-3.3
		c0,0-0.3,0.8-0.5,1.7L35.8,29.5"/>
	<path id="_Path_6" class="st1" d="M56,29.6c0.3-1.2,0.6-2.3,0.8-3c-0.1-0.4-0.4-0.7-0.7-1l0-0.1c2.2,0,4.5,0,4.5,0
		c0.6,1.5,2,5.6,3,8.1c0.1,0.4,0.4,0.7,0.7,0.8c-1.9,0-5.4,0-5.3,0c0.9-0.8,0.8-0.8,0.4-2.1h-2.9c-0.6,1.4,0.2,2.1,0.3,2
		c-0.7,0-2.9,0-2.9,0c1.2-0.9,1.2-1.1,1.2-1.1C55.2,32.1,55.6,30.8,56,29.6l1.2,0c-0.3,0.8-0.5,1.7-0.5,1.7H59l-1.3-3.3
		c0,0-0.3,0.8-0.5,1.7L56,29.6"/>
	<path id="_Path_7" class="st1" d="M52.2,27.6c0-1.7,0-2.3,0-2.3c-0.7,0.6-0.4,0.5-2.2,0.2c-5.4-0.9-5.8,4.1-2.9,5.3
		c2.5,0.9,3.3,1.1,3,2c-0.1,0.3-2.4,1.3-4.7-0.8l0,3c0.3-0.3,0.7-0.6,1.1-0.8c1.5,0.6,3.2,0.6,4.7,0c3.4-1.8,1.7-4.6-2-5.7
		C46.2,27.5,49.1,25.3,52.2,27.6"/>
	<path id="_Path_8" class="st1" d="M43.1,8.2c0,0.1-0.1,0.2-0.2,0.2s-0.2-0.1-0.2-0.2S42.8,8,42.9,8c0,0,0,0,0,0
		C43,8,43.1,8.1,43.1,8.2"/>
	<path id="_Path_9" class="st1" d="M44.5,11.1c0,0.1-0.1,0.2-0.2,0.2c-0.1,0-0.2-0.1-0.2-0.2s0.1-0.2,0.2-0.2c0,0,0,0,0,0
		C44.4,10.9,44.5,11,44.5,11.1"/>
	<path id="_Path_10" class="st1" d="M48,16c0,0.1-0.1,0.2-0.2,0.2c-0.1,0-0.2-0.1-0.2-0.2c0-0.1,0.1-0.2,0.2-0.2c0,0,0,0,0,0
		C47.9,15.7,48,15.9,48,16"/>
	<path id="_Path_11" class="st1" d="M42.4,12.8c0,0.1-0.1,0.2-0.2,0.2C42,13,42,12.9,42,12.8c0-0.1,0.1-0.2,0.2-0.2c0,0,0,0,0,0
		C42.3,12.6,42.4,12.7,42.4,12.8"/>
	<path id="_Path_12" class="st1" d="M44.5,13.9c0,0.1-0.1,0.2-0.2,0.2c-0.1,0-0.2-0.1-0.2-0.2c0-0.1,0.1-0.2,0.2-0.2c0,0,0,0,0,0
		C44.4,13.7,44.5,13.8,44.5,13.9"/>
	<path id="_Path_13" class="st1" d="M41.7,10.8c0,0.1-0.1,0.2-0.2,0.2c-0.1,0-0.2-0.1-0.2-0.2c0-0.1,0.1-0.2,0.2-0.2c0,0,0,0,0,0
		C41.6,10.6,41.7,10.7,41.7,10.8"/>
	<path id="_Path_14" class="st1" d="M38.5,12.8c0,0.1-0.1,0.2-0.2,0.2c-0.1,0-0.2-0.1-0.2-0.2c0-0.1,0.1-0.2,0.2-0.2
		C38.4,12.6,38.5,12.6,38.5,12.8"/>
	<path id="_Path_15" class="st1" d="M39.1,13.1c0,0.1-0.1,0.2-0.2,0.2c-0.1,0-0.2-0.1-0.2-0.2s0.1-0.2,0.2-0.2c0,0,0,0,0,0
		C39,12.9,39.1,13,39.1,13.1"/>
	<path id="_Path_16" class="st1" d="M39.7,13.5c0,0.1-0.1,0.2-0.2,0.2c-0.1,0-0.2-0.1-0.2-0.2c0-0.1,0.1-0.2,0.2-0.2c0,0,0,0,0,0
		C39.6,13.3,39.7,13.4,39.7,13.5"/>
	<path id="_Path_17" class="st1" d="M38.8,14.3c0,0.1-0.1,0.2-0.2,0.2c-0.1,0-0.2-0.1-0.2-0.2c0-0.1,0.1-0.2,0.2-0.2c0,0,0,0,0,0
		C38.7,14.1,38.8,14.2,38.8,14.3"/>
	<path id="_Path_18" class="st1" d="M34.3,17.5c0,0.1-0.1,0.2-0.2,0.2c-0.1,0-0.2-0.1-0.2-0.2c0-0.1,0.1-0.2,0.2-0.2c0,0,0,0,0,0
		C34.2,17.3,34.3,17.4,34.3,17.5"/>
	<path id="_Path_19" class="st1" d="M35.1,18.5c0,0.1-0.1,0.2-0.2,0.2s-0.2-0.1-0.2-0.2c0-0.1,0.1-0.2,0.2-0.2c0,0,0,0,0,0
		C35,18.3,35.1,18.4,35.1,18.5"/>
	<path id="_Path_20" class="st1" d="M34.4,35c0,0.1-0.1,0.2-0.2,0.2c-0.1,0-0.2-0.1-0.2-0.2c0-0.1,0.1-0.2,0.2-0.2
		C34.3,34.8,34.4,34.9,34.4,35"/>
	<path id="_Path_21" class="st1" d="M34.5,39.6c0,0.1-0.1,0.2-0.2,0.2c-0.1,0-0.2-0.1-0.2-0.2c0-0.1,0.1-0.2,0.2-0.2c0,0,0,0,0,0
		C34.4,39.3,34.5,39.4,34.5,39.6"/>
	<path id="_Path_22" class="st1" d="M32,41.9c0,0.1-0.1,0.2-0.2,0.2c-0.1,0-0.2-0.1-0.2-0.2s0.1-0.2,0.2-0.2c0,0,0,0,0,0
		C31.9,41.7,32,41.8,32,41.9"/>
	<path id="_Path_23" class="st1" d="M28.9,42.8c0,0.1-0.1,0.2-0.2,0.2c-0.1,0-0.2-0.1-0.2-0.2c0-0.1,0.1-0.2,0.2-0.2c0,0,0,0,0,0
		C28.7,42.6,28.9,42.7,28.9,42.8"/>
	<path id="_Path_24" class="st1" d="M28.2,40.7c0,0.1-0.1,0.2-0.2,0.2c-0.1,0-0.2-0.1-0.2-0.2c0-0.1,0.1-0.2,0.2-0.2c0,0,0,0,0,0
		C28.1,40.5,28.2,40.6,28.2,40.7"/>
	<path id="_Path_25" class="st1" d="M27.9,42.1c0,0.1-0.1,0.2-0.2,0.2c-0.1,0-0.2-0.1-0.2-0.2c0-0.1,0.1-0.2,0.2-0.2c0,0,0,0,0,0
		C27.8,41.9,27.9,42,27.9,42.1"/>
	<path id="_Path_26" class="st1" d="M25.5,41c0,0.1-0.1,0.2-0.2,0.2c-0.1,0-0.2-0.1-0.2-0.2c0-0.1,0.1-0.2,0.2-0.2c0,0,0,0,0,0
		C25.5,40.8,25.5,40.9,25.5,41"/>
	<path id="_Path_27" class="st1" d="M33.6,44.7c0,0.1-0.1,0.2-0.2,0.2c0,0,0,0,0,0c-0.1,0-0.2-0.1-0.2-0.2c0-0.1,0.1-0.2,0.2-0.2
		C33.6,44.5,33.6,44.6,33.6,44.7"/>
	<path id="_Path_28" class="st1" d="M36.1,42.9c0,0.1-0.1,0.2-0.2,0.2c0,0,0,0,0,0c-0.1,0-0.2-0.1-0.2-0.2c0-0.1,0.1-0.2,0.2-0.2
		C36,42.7,36.1,42.8,36.1,42.9"/>
	<path id="_Path_29" class="st1" d="M36.4,45.2c0,0.1-0.1,0.2-0.2,0.2c-0.1,0-0.2-0.1-0.2-0.2S36,45,36.2,45c0,0,0,0,0,0
		C36.3,45,36.4,45.1,36.4,45.2"/>
	<path id="_Path_30" class="st1" d="M46.4,43c0,0.1-0.1,0.2-0.2,0.2c-0.1,0-0.2-0.1-0.2-0.2c0-0.1,0.1-0.2,0.2-0.2c0,0,0,0,0,0
		C46.3,42.8,46.4,42.9,46.4,43"/>
	<path id="_Path_31" class="st1" d="M41.7,44.7c0,0.1-0.1,0.2-0.2,0.2c-0.1,0-0.2-0.1-0.2-0.2c0-0.1,0.1-0.2,0.2-0.2
		C41.6,44.5,41.7,44.6,41.7,44.7"/>
	<path id="_Path_32" class="st1" d="M54.3,47.1c0,0.1-0.1,0.2-0.2,0.2c-0.1,0-0.2-0.1-0.2-0.2c0-0.1,0.1-0.2,0.2-0.2c0,0,0,0,0,0
		C54.2,46.9,54.3,47,54.3,47.1"/>
	<path id="_Path_33" class="st1" d="M55.3,37.8c0,0.1-0.1,0.2-0.2,0.2s-0.2-0.1-0.2-0.2c0-0.1,0.1-0.2,0.2-0.2
		C55.2,37.6,55.3,37.7,55.3,37.8"/>
	<path id="_Path_34" class="st1" d="M53.4,39.1c0,0.1-0.1,0.2-0.2,0.2c-0.1,0-0.2-0.1-0.2-0.2c0-0.1,0.1-0.2,0.2-0.2c0,0,0,0,0,0
		C53.3,38.9,53.4,39,53.4,39.1"/>
	<path id="_Path_35" class="st1" d="M55.3,39.5c0,0.1-0.1,0.2-0.2,0.2c-0.1,0-0.2-0.1-0.2-0.2c0-0.1,0.1-0.2,0.2-0.2c0,0,0,0,0,0
		C55.2,39.3,55.3,39.4,55.3,39.5"/>
	<path id="_Path_36" class="st1" d="M53.4,41.8c0,0.1-0.1,0.2-0.2,0.2c-0.1,0-0.2-0.1-0.2-0.2c0-0.1,0.1-0.2,0.2-0.2
		C53.3,41.6,53.4,41.7,53.4,41.8"/>
	<path id="_Path_37" class="st1" d="M58.3,36.5c0,0.1-0.1,0.2-0.2,0.2s-0.2-0.1-0.2-0.2c0-0.1,0.1-0.2,0.2-0.2
		C58.2,36.3,58.3,36.4,58.3,36.5"/>
	<path id="_Path_38" class="st1" d="M58.8,37.7c0,0.1-0.1,0.2-0.2,0.2c0,0,0,0,0,0c-0.1,0-0.2-0.1-0.2-0.2c0-0.1,0.1-0.2,0.2-0.2
		C58.6,37.5,58.8,37.6,58.8,37.7"/>
	<path id="_Path_39" class="st1" d="M62.1,39.1c0,0.1-0.1,0.2-0.2,0.2c-0.1,0-0.2-0.1-0.2-0.2c0-0.1,0.1-0.2,0.2-0.2c0,0,0,0,0,0
		C62,38.9,62.1,39,62.1,39.1"/>
	<path id="_Path_40" class="st1" d="M58.7,41.6c0,0.1-0.1,0.2-0.2,0.2c-0.1,0-0.2-0.1-0.2-0.2c0-0.1,0.1-0.2,0.2-0.2c0,0,0,0,0,0
		C58.6,41.4,58.7,41.5,58.7,41.6"/>
	<path id="_Path_41" class="st1" d="M60.9,39.6c0,0.1-0.1,0.2-0.2,0.2c-0.1,0-0.2-0.1-0.2-0.2c0-0.1,0.1-0.2,0.2-0.2
		C60.8,39.4,60.9,39.5,60.9,39.6"/>
	<path id="_Path_42" class="st1" d="M60.5,42.7c0,0.1-0.1,0.2-0.2,0.2s-0.2-0.1-0.2-0.2c0-0.1,0.1-0.2,0.2-0.2c0,0,0,0,0,0
		C60.4,42.5,60.5,42.6,60.5,42.7"/>
	<path id="_Path_43" class="st1" d="M61.4,37.5c0,0.2-0.1,0.3-0.3,0.3c-0.2,0-0.3-0.1-0.3-0.3c0-0.2,0.1-0.3,0.3-0.3c0,0,0,0,0,0
		C61.3,37.2,61.4,37.3,61.4,37.5"/>
	<path id="_Path_44" class="st1" d="M61.1,36.6L61,37.4l-0.8,0.1l0.8,0.1l0.1,0.9l0.1-0.9l0.8-0.1l-0.8-0.1L61.1,36.6"/>
	<path id="_Path_45" class="st1" d="M59.3,42.7c0,0.2-0.1,0.3-0.3,0.3c-0.2,0-0.3-0.1-0.3-0.3c0-0.2,0.1-0.3,0.3-0.3c0,0,0,0,0,0
		C59.1,42.4,59.3,42.6,59.3,42.7"/>
	<path id="_Path_46" class="st1" d="M59,41.8l-0.1,0.8l-0.8,0.1l0.8,0.1l0.1,0.9l0.1-0.9l0.8-0.1l-0.8-0.1L59,41.8"/>
	<path id="_Path_47" class="st1" d="M36.8,17.9c0,0.2-0.1,0.3-0.3,0.3c-0.2,0-0.3-0.1-0.3-0.3c0-0.2,0.1-0.3,0.3-0.3c0,0,0,0,0,0
		C36.7,17.6,36.8,17.7,36.8,17.9"/>
	<path id="_Path_48" class="st1" d="M36.5,17l-0.1,0.8l-0.8,0.1l0.8,0.1l0.1,0.9l0.1-0.9l0.8-0.1l-0.8-0.1L36.5,17"/>
	<path id="_Path_49" class="st1" d="M48,10.6c0,0.2-0.1,0.3-0.3,0.3c-0.2,0-0.3-0.1-0.3-0.3c0-0.2,0.1-0.3,0.3-0.3
		C47.9,10.3,48,10.4,48,10.6"/>
	<path id="_Path_50" class="st1" d="M47.7,9.7l-0.1,0.8l-0.8,0.1l0.8,0.1l0.1,0.9l0.1-0.9l0.8-0.1l-0.8-0.1L47.7,9.7"/>
	<path id="_Path_51" class="st1" d="M34.4,47.5c0,0.2-0.1,0.3-0.3,0.3c-0.2,0-0.3-0.1-0.3-0.3c0-0.2,0.1-0.3,0.3-0.3c0,0,0,0,0,0
		C34.3,47.2,34.4,47.4,34.4,47.5"/>
	<path id="_Path_52" class="st1" d="M34.1,46.6L34,47.4l-0.8,0.1l0.8,0.1l0.1,0.9l0.1-0.9l0.8-0.1l-0.8-0.1L34.1,46.6"/>
	<path id="_Path_53" class="st2" d="M74,8.3c-3.7,10.9-18.3,19.2-30.7,27.3c-7,4.5-13.7,9.6-19.9,15.1c-1.3,1.2,0.3-0.5-0.2,0.1
		c7.1-8.2,15.3-13.1,19.8-16.1c7.6-5.2,12-6.5,25.2-18.6"/>
	<path id="_Path_54" class="st2" d="M19.4,35.2c-1.3,0.6-2.5,1.3-3.5,1.9l0.6,0.2c1-0.6,2-1.1,3-1.6"/>
	<path id="_Path_55" class="st2" d="M26.3,47.4c-1.2,1-2.4,2.2-3.7,3.3l-0.1,0.8c1.3-1.3,2.7-2.6,4.2-3.8"/>
	<path id="_Path_56" class="st1" d="M48.2,42.6c10.3,4.2,8.5-6.4,3-14.6c-2.6-4-5.9-7.4-9.7-10.3c-3.2-2.4-3.6-2.6-3.6-2.6
		c7.2,3.4,13.8,11.9,16.5,18.1c1.3,2.9,4.7,14.2-6.2,9.6"/>
</g>
</svg>
