<?xml version="1.0" encoding="utf-8"?>
<!-- Generator: Adobe Illustrator 22.0.0, SVG Export Plug-In . SVG Version: 6.00 Build 0)  -->
<svg version="1.1" id="Layer_1" xmlns="http://www.w3.org/2000/svg" xmlns:xlink="http://www.w3.org/1999/xlink" x="0px" y="0px"
	 viewBox="0 0 90 60" style="enable-background:new 0 0 90 60;" xml:space="preserve">
<style type="text/css">
	.st0{fill:#EB3326;}
</style>
<title>_</title>
<path class="st0" d="M32.5,11.7c-2.3,2.8-3.1,6.4-2.3,9.9c0.7,3.6,2.9,6.6,6.1,8.4c2.4,1.5,5,2.6,7.5,3.9c1.6,0.7,3.2,1.6,4.6,2.6
	c1,0.8,1.8,2,2.2,3.3c0.8,3.3-1,5.3-4.6,5.5c-4,0.3-8-0.8-11.2-3.2c-0.2-0.2-0.5-0.3-0.9-0.5c-0.9,2.1-1.8,4.1-2.7,6.1
	c-1.1,2.5-1.1,2.5,1.4,3.7c1.3,0.6,2.6,1.1,3.8,1.6c-4.4,2.2-7.5,0.4-8.3-3.2c-2.2-10.1-4.5-20.1-6.9-30.1c-0.8-3.4,1.1-6,4.1-6.5
	c2.3-0.4,4.6-1,6.9-1.5C32.3,11.6,32.3,11.6,32.5,11.7z"/>
<path class="st0" d="M59.6,48c1.7-2.4,2.5-5.3,2.3-8.3c0-4.1-2-7.8-5.4-10.1c-2-1.3-4.1-2.4-6.3-3.4c-2.3-1.1-4.6-2-6.8-3.2
	c-1.8-0.8-2.7-2.8-2.2-4.7c0.4-1.7,1.9-2.9,3.6-2.9c3.6-0.5,7.2,0.2,10.3,2.1c0.3,0.2,0.5,0.3,0.8,0.5c0.1,0,0.2,0.1,0.4,0.1
	c0.2-0.3,0.3-0.5,0.5-0.8c0.8-2.2,1.5-4.4,2.4-6.5c0.3-0.7,0.1-1.1-0.6-1.4c-2.1-0.8-4.2-1.5-6.6-2.4c2.3-0.3,4.3-1.5,6.6-0.8
	c1.6,0.5,2.8,1.9,3.1,3.6c2.4,10.5,4.8,21,7.2,31.6c0.4,2.1-0.7,4.3-2.8,5C64.1,47,62,47.4,59.6,48z"/>
</svg>
