<svg id="Layer_1" data-name="Layer 1" xmlns="http://www.w3.org/2000/svg" viewBox="0 0 48 48"><defs><style>.cls-1{fill:#eb3326;}</style></defs><title>_</title><path class="cls-1" d="M11.53474,5.69818a11.55988,11.55988,0,0,0-2.34915,9.8819,12.57625,12.57625,0,0,0,6.10229,8.44272c2.39221,1.48352,5.02969,2.56821,7.53762,3.8697A27.11273,27.11273,0,0,1,27.463,30.52835a6.57341,6.57341,0,0,1,2.15706,3.25933c.8205,3.25382-1.03539,5.31172-4.59936,5.52751a16.87137,16.87137,0,0,1-11.21047-3.15372c-.239-.17173-.50852-.301-.93168-.548-.9257,2.08932-1.81747,4.10365-2.71055,6.1174C9.0619,44.225,9.05393,44.241,11.59176,45.41681c1.25965.58362,2.55274,1.09507,3.83039,1.63986-4.43544,2.18292-7.47953.36144-8.27269-3.24965C4.93742,33.736,2.6603,23.677.21469,13.66069c-.82822-3.39209,1.05567-6.04414,4.127-6.52705,2.31464-.36394,4.585-1.00922,6.87576-1.52633C11.25353,5.59915,11.29816,5.62868,11.53474,5.69818Z"/><path class="cls-1" d="M38.64586,41.9828a13.59515,13.59515,0,0,0,2.32552-8.27908A12.15164,12.15164,0,0,0,35.59365,23.6103a48.99819,48.99819,0,0,0-6.317-3.37c-2.262-1.11711-4.63219-2.02718-6.841-3.23623a3.856,3.856,0,0,1-2.15848-4.68327,3.7104,3.7104,0,0,1,3.59742-2.91146,15.30325,15.30325,0,0,1,10.28493,2.12443c.25632.165.50507.342.76432.50218a1.71689,1.71689,0,0,0,.37183.094,4.8018,4.8018,0,0,0,.47675-.80352c.79571-2.16608,1.543-4.35032,2.36483-6.50621.28105-.73724.12357-1.14721-.59535-1.40712-2.12-.76643-4.23645-1.54286-6.64112-2.42,2.33074-.2506,4.34048-1.48947,6.64363-.77245a4.48979,4.48979,0,0,1,3.10175,3.569Q44.27464,19.566,47.88394,35.34675a4.42545,4.42545,0,0,1-2.79453,5.03941C43.07582,41.02176,40.98565,41.41471,38.64586,41.9828Z"/></svg>