<svg xmlns="http://www.w3.org/2000/svg" viewBox="0 0 50 50"><defs><style>.cls-1,.cls-2,.cls-5{fill:none;}.cls-1,.cls-4,.cls-5{stroke:#434343;}.cls-1,.cls-2,.cls-4,.cls-5{stroke-linecap:round;stroke-linejoin:round;}.cls-1{stroke-width:0.9px;}.cls-2{stroke:#f27324;stroke-width:1.2px;}.cls-3{fill:#f27222;}.cls-4{fill:#f27324;}.cls-4,.cls-5{stroke-width:0.87px;}.cls-6{fill:#434343;}</style></defs><title>Pictos Sooko</title><g id="Capa_1" data-name="Capa 1"><path class="cls-1" d="M12.4,29.7a2.2,2.2,0,0,1,.7-1.6,4.4,4.4,0,1,0-6,.1,2.2,2.2,0,0,1,.6,1.6h0V31h4.6Z"/><line class="cls-2" x1="8.6" y1="32.8" x2="11.6" y2="32.8"/><line class="cls-2" x1="8.6" y1="25.3" x2="11.6" y2="25.3"/><line class="cls-2" x1="10.1" y1="25.3" x2="10.1" y2="27.3"/><line class="cls-2" x1="10.1" y1="18.9" x2="10.1" y2="17.2"/><line class="cls-2" x1="12.4" y1="19.4" x2="12.7" y2="18.7"/><line class="cls-2" x1="7.7" y1="19.2" x2="7.4" y2="18.5"/><line class="cls-2" x1="5.7" y1="20.5" x2="4.5" y2="19.3"/><line class="cls-2" x1="14.5" y1="20.8" x2="15.7" y2="19.6"/><path class="cls-3" d="M21.3,34.6h7.2a2.1,2.1,0,0,1,2.1,2.1v0a0,0,0,0,1,0,0H19.3a0,0,0,0,1,0,0v0A2.1,2.1,0,0,1,21.3,34.6Z"/><rect class="cls-1" x="19.3" y="34.6" width="11.4" height="9.52" rx="1.2" ry="1.2"/><line class="cls-1" x1="21.6" y1="33.7" x2="21.6" y2="35.8"/><line class="cls-1" x1="23.3" y1="33.7" x2="23.3" y2="35.8"/><line class="cls-1" x1="25" y1="33.7" x2="25" y2="35.8"/><line class="cls-1" x1="26.6" y1="33.7" x2="26.6" y2="35.8"/><line class="cls-1" x1="28.3" y1="33.7" x2="28.3" y2="35.8"/><polyline class="cls-2" points="23.1 39.9 24.5 41.9 26.8 38.5"/><polyline class="cls-1" points="14.6 11.2 16.5 11.4 15.9 13.1"/><path class="cls-4" d="M40.3,20.9H39l-.7-.7h0V19.1h0l-.9-.4h-.1l-.7.9H35.6l-.7-.9h-.1l-.9.4h0v1.2h0l-.7.7H31.9l-.4.9h0l.9.7h0a3.6,3.6,0,0,0,0,1h0l-.9.7h0l.4.9h1.3l.7.7h0v1.2h0l.9.4h.1l.7-.9h1.1l.7.9h.1l.9-.4h0V26.3h0l.7-.7h1.3l.4-.9h0l-.9-.7h0a3.6,3.6,0,0,0,0-1h0l.9-.7h0l-.4-.9ZM37.9,23a1.8,1.8,0,1,1-2.1-1.5h0A1.8,1.8,0,0,1,37.9,23Z"/><path class="cls-5" d="M45.2,27.3h-.7L44,27h0v-.7h0l-.5-.2h-.1l-.4.5h-.6L42,26h-.1l-.5.2h0v.7h0l-.4.4h-.8l-.2.5h0l.5.4h0a2.1,2.1,0,0,0,0,.6h0l-.5.4h0l.2.5H41l.4.4h0v.7h0l.5.2H42l.4-.5h.6l.4.5h.1l.5-.2h0v-.7h0l.4-.4h.8l.2-.5h0l-.5-.4h0a2.1,2.1,0,0,0,0-.6h0l.5-.4h0l-.2-.5Z"/><circle class="cls-6" cx="42.7" cy="28.7" r="0.7"/><polyline class="cls-3" points="29.9 5.6 30.7 3.5 31.5 5.6"/><path class="cls-3" d="M29.9,14.2h1.6a0,0,0,0,1,0,0v.7a.8.8,0,0,1-.8.8h0a.8.8,0,0,1-.8-.8v-.7a0,0,0,0,1,0,0Z"/><path class="cls-1" d="M29.9,5.6l.8-2.1.8,2.1v9.3a.8.8,0,0,1-.8.8h0a.8.8,0,0,1-.8-.8V5.6Z"/><rect class="cls-1" x="18.4" y="4.1" width="9.5" height="11.55"/><rect class="cls-3" x="20" y="6.3" width="2.2" height="1.39"/><rect class="cls-3" x="20" y="9.5" width="2.2" height="1.39"/><rect class="cls-3" x="20" y="12.6" width="2.2" height="1.39"/><line class="cls-1" x1="23.4" y1="7" x2="26.3" y2="7"/><line class="cls-1" x1="23.4" y1="10.1" x2="26.3" y2="10.1"/><line class="cls-1" x1="23.4" y1="13.3" x2="26.3" y2="13.3"/><path class="cls-4" d="M25.3,3.3h-1V2.7a1.2,1.2,0,0,0-2.3,0v.7H21l-.5,1.5h5.3Z"/><path class="cls-5" d="M17.3,39.3a16.3,16.3,0,0,1-4.8-3.9"/><path class="cls-5" d="M39.9,31.9A16.3,16.3,0,0,1,33.5,39"/><path class="cls-5" d="M33.1,11a16.3,16.3,0,0,1,5.4,4.9"/><path class="cls-5" d="M11.7,15.9a16.3,16.3,0,0,1,4.6-4.5"/><polyline class="cls-1" points="38.9 14.5 38.7 16.4 37 15.8"/><polyline class="cls-1" points="35 39.4 33.2 39.2 33.7 37.5"/><polyline class="cls-1" points="12.4 37 12.3 35.2 14.1 35.5"/></g></svg>