<?xml version="1.0" encoding="utf-8"?>
<!-- Generator: Adobe Illustrator 22.0.0, SVG Export Plug-In . SVG Version: 6.00 Build 0)  -->
<svg version="1.1" id="Layer_1" xmlns="http://www.w3.org/2000/svg" xmlns:xlink="http://www.w3.org/1999/xlink" x="0px" y="0px"
	 viewBox="0 0 251 256.2" style="enable-background:new 0 0 251 256.2;" xml:space="preserve">
<style type="text/css">
	.st0{fill:#F27324;}
	.st1{fill:#434343;}
</style>
<path class="st0" d="M121.7,252.3L121.7,252.3c-11.8,0-21.3-9.5-21.3-21.3V26.3c0-11.8,9.5-21.3,21.3-21.3h0
	c11.8,0,21.3,9.5,21.3,21.3V231C143,242.7,133.4,252.3,121.7,252.3z"/>
<g>
	<path class="st1" d="M147.6,93.6c0,7.3,0,14.1,0,21.2c0.7,0.1,1.4,0.3,2,0.3c2.2,0,4.3,0,6.3,0c5.5-8,10.2-10.3,16.6-8.2
		c5.3,1.7,8.9,6.5,9,12c0.1,5.6-3.8,10.7-9.3,12.3c-6.3,1.8-11-0.5-16.2-8.3c-1.4,0-3.1,0-4.7,0c-1.1,0-2.3,0.1-3.7,0.2
		c0,8.9,0,17.7,0,26.7c12.8,0,25.4,0,38.4,0c0.6-0.9,1.3-2.2,2.2-3.4c4.5-6.1,12.9-7,18.5-2.2c5.8,5,5.9,13.8,0.3,19
		c-5.4,5-14.3,4.4-18.5-1.7c-2.2-3.3-4.6-4-8.1-4c-9.5,0.1-19,0-28.5,0.1c-1.3,0-2.6,0.2-4.3,0.3c0,8.2,0,16.3,0,24.9
		c5,0,9.8,0,14.6,0c4.3,0,8.7-0.1,13,0.1c2.9,0.1,4.7-0.6,6.4-3.4c3.8-6.1,11.7-7.4,17.6-3.5c5.7,3.9,7.3,11.4,3.6,17.2
		c-4.9,7.7-15.9,8.1-21,0.5c-1.8-2.8-3.7-3.6-6.8-3.6c-8.7,0.2-17.3,0.1-26,0.2c-0.3,0-0.6,0.2-1.3,0.4c0,6.2,0,12.6,0,19.5
		c5.4,0,10.7,0.2,16-0.1c5.2-0.3,9.4,1.4,12.8,5.3c1.3,1.5,2.9,2.8,4.2,4.3c1.5,1.7,3,2.4,5.6,1.9c5.9-1.3,11.5,1.9,13.9,7.3
		c2.2,5,0.9,10.9-3.3,14.6c-4.3,3.8-10.5,4.3-15.3,1.2c-4.9-3.2-6.9-9-5.1-14.9c0.2-0.8,0.5-1.5,0.9-2.6c-2.7-2.7-5.3-5.4-8.1-8
		c-0.8-0.7-2.1-1.3-3.1-1.3c-4.8-0.2-9.7-0.1-14.5-0.1c-1.3,0-2.6,0.1-4.5,0.3c0,3,0.1,5.8,0,8.6c-0.8,12.4-6.5,21.6-17.9,26.7
		c-11,5-21.5,3.4-31-3.9c-2.8-2.2-4.8-5.5-7.3-8.1c-1-1.1-2.4-2.3-3.8-2.5c-19.4-2.5-28.1-10.6-31.9-30c0-0.1-0.2-0.2-0.7-0.7
		c-1.8,0-3.9,0.1-6,0c-2.3-0.2-3.8-1.5-3.7-3.9c0.1-2.1,1.5-3.4,3.7-3.4c6.7,0.1,12.8-1.9,18.2-5.8c1.9-1.4,3.9-0.9,5.2,1.1
		c1.2,1.8,0.6,3.6-1,4.9c-1.6,1.2-3.2,2.5-5,3.3c-3,1.2-3.2,3.2-2.8,6c2.7,17.9,23.1,26.8,37.9,16.6c1.2-0.8,2.3-1.9,3.6-2.7
		c1.8-1.2,3.5-0.9,4.9,0.7c1.4,1.7,1.3,3.6-0.4,4.9c-2.9,2.2-6,4.2-9,6.2c-0.8,0.5-1.7,0.9-2.8,1.5c5.2,7.7,12.1,11.6,21.2,11
		c8.5-0.6,14.5-4.9,18.9-12.9c-2.2-0.2-3.7-0.2-5.3-0.4c-2.1-0.3-3.4-1.6-3.4-3.7c0-2.1,1.4-3.4,3.5-3.5c2.1-0.1,4.3,0,6.8,0
		c0-9.3,0-18.2,0-27.5c-4.4,0-8.9-0.4-13.3,0.1c-4.9,0.6-7.9,4-9.2,8.7c-0.3,1-0.2,2-0.4,3c-0.5,2-1.7,3.3-3.9,3.1
		c-2.5-0.2-3.4-1.9-3.3-4.1c0.2-5.4,2.3-10,6.4-13.6c3.8-3.4,8.3-4.8,13.3-4.8c3.5,0,6.9,0,10.6,0c0-17.4,0-34.1,0-51.6
		c-1.9,0-3.6,0-5.4,0c-17.3,0-34.7,0-52,0c-4.9,0-6.9-1.1-6.7-3.9c0.1-2.6,1.8-3.5,6.6-3.5c17.2,0,34.3,0,51.5,0c1.8,0,3.6,0,5.8,0
		c0-21.1,0-41.8,0-63.2c-2.9,0-5.9,0-8.8,0c-7.7-0.1-15.3,0.2-23-0.3c-8.6-0.5-15.3-6.5-17.4-14.9c-0.2-1-0.4-2-0.5-2.9
		c-0.2-3.2,0.9-5.1,3.2-5.3c2.8-0.2,3.6,1.6,4.1,4c2,9,5.8,11.9,15,11.9c9,0,18,0,27.3,0c0-8.3,0-16.4,0-25c-2.1,0-4.3,0-6.4,0
		c-2.3-0.1-3.9-1.3-4-3.6c-0.1-2.3,1.5-3.6,3.8-3.8c2.1-0.2,4.3-0.2,6.4-0.3c1-9.4-5.4-18.4-15.1-21.5C113.5,5.4,102.9,9.5,97.6,19
		c1.3,0.7,2.7,1.3,3.9,2c10.2,5.6,16.2,14.1,17.3,25.8c0.1,1,0.4,2.2,0,2.9c-0.9,1.2-2.2,2.9-3.4,3c-1.2,0.1-3-1.4-3.6-2.6
		c-0.8-1.6-0.4-3.6-0.8-5.4c-2.5-12.5-14.5-21.1-26.9-19.5C71.6,26.8,62.4,37.8,63,50.7c0.2,5.6-1.1,6.7-6.8,5.6
		c-16.3-3.1-30.7,9.2-29.6,25.1c0.1,1.9,0.7,3.8,1,5.5c5.1-0.7,9.7-1.5,14.3-1.9c1.3-0.1,3.1,0.4,4,1.3c2,2,0.6,5.2-2.6,5.8
		c-3.6,0.7-7.3,0.9-10.8,1.9c-13.1,3.7-23.3,15.9-25,29.6c-1.7,14,5,27.6,16.8,34.3c2.4-2.2,4.7-4.5,7.2-6.7c1.1-1,2.5-1.7,3.8-2.4
		c2.1-1.2,3.9-0.7,5.1,1.4c1.1,1.9,0.3,3.5-1.3,4.8c-0.9,0.7-1.9,1.3-2.9,2c-10.5,7.8-13,22-5.7,32.9c0.4,0.6,0.8,1.1,1.2,1.6
		c1.5,2,2.4,4.1,0.1,6.2c-1.9,1.7-4,1-6.3-1.9c-3.5-4.4-6-9.4-6.2-15c-0.2-5.1,0.3-10.2,0.6-16.3c-12.4-8.1-19.9-20.4-20-36.3
		c-0.1-16,7.3-28.4,20.4-37.1C17,62.7,28,49.1,55,48c0.3-1.5,0.6-3.1,0.9-4.7c3-14.4,14.2-24.5,28.8-25.6c3.2-0.3,5.2-1.1,7.1-4.1
		C98.3,3.2,111.4-2,123,0.7c12.8,2.9,21.8,12.4,23.7,25.3c0.2,1.5,0.5,2.9,0.8,4.8c1.8,0,3.5-0.1,5.1,0c2.1,0.1,3.3-0.6,4.3-2.5
		c2.5-4.4,6.4-6.6,11.6-6.4c5.7,0.2,10.7,4.3,11.9,9.7c1.3,5.8-1.5,11.7-6.7,14.3c-5.3,2.6-11.6,1.3-15.4-3.2c-1-1.3-1.9-2.7-2.9-4
		c-0.2-0.2-0.6-0.3-0.9-0.3c-2.2,0-4.3,0-6.9,0c0,8.2,0,16.2,0,24.8c7.4,0,14.7-0.4,22,0.1c6.7,0.5,11.9-1.2,16.1-6.6
		c2.2-2.9,5.2-5.1,7.7-7.6c-0.6-1.6-1.1-2.8-1.5-4.1c-2-7.1,2.7-14.6,9.9-15.8c7.5-1.3,14.3,3.8,15,11.1c0.7,7.5-4.9,14.4-12.3,13.8
		c-4.7-0.4-7.4,1.5-10.1,4.5c-2.4,2.6-5.1,4.9-7.4,7.5c-3.1,3.5-6.9,4.8-11.6,4.7c-9.1-0.2-18.3-0.1-27.8-0.1c0,5.3,0,10.2,0,15.4
		L147.6,93.6z M168.1,39.5c2.7,0,5.1-2.4,5.2-5c0-2.6-2.4-5.1-5-5.2c-2.8-0.1-5.5,2.5-5.4,5.3C162.9,37.2,165.4,39.5,168.1,39.5z
		 M197.2,186.2c-0.1-2.6-2.6-5-5.2-5c-2.8,0-5.4,2.8-5.2,5.6c0.2,2.7,2.7,4.9,5.4,4.7C194.9,191.3,197.2,188.8,197.2,186.2z
		 M193.6,233.7c-0.1-2.8-2.3-4.9-5.2-4.8c-2.9,0-5,2.2-5,5c0,3,2.5,5.3,5.4,5.2C191.5,238.8,193.7,236.5,193.6,233.7z M173.7,119.1
		c0.1-2.8-2-5.1-4.8-5.2c-3-0.1-5.5,2.2-5.4,5.2c0,2.7,2.3,5,5.1,5C171.4,124.1,173.6,121.9,173.7,119.1z M209.4,41.3
		c0-2.6-2.4-5.1-5.1-5.1c-2.9-0.1-5.4,2.5-5.2,5.4c0.1,2.8,2.5,4.9,5.3,4.8C207.1,46.3,209.4,44,209.4,41.3z M198.5,158.9
		c2.7-0.1,5-2.4,5-5.1c0-3-2.4-5.3-5.5-5.1c-2.8,0.2-4.9,2.4-4.8,5.3C193.4,156.7,195.7,158.9,198.5,158.9z"/>
	<path class="st0" d="M230.6,142.2c-8.1,0.1-14.4-7.1-12.6-14.9c0.7-3.1,0.1-5-2.2-6.9c-1.3-1-2.4-2.3-3.5-3.5
		c-1.7-1.8-2.3-3.8-0.3-5.7c2-1.9,4-1.1,5.7,0.6c1.1,1,2.2,2,3.2,3.2c2,2.3,3.9,3,7.2,2.4c9.7-1.9,17.4,7.3,14.2,16.5
		C240.7,138.7,235.9,142.1,230.6,142.2z M230.2,124.4c-2.7,0.1-5,2.5-4.9,5.2c0,2.7,2.4,5.1,5.1,5.1c2.9,0,5.3-2.5,5.2-5.5
		C235.4,126.5,232.9,124.3,230.2,124.4z"/>
	<path class="st1" d="M72.4,89.1c-0.1,11.6-9.6,21.7-21.2,22.5c-3.1,0.2-5.1-0.9-5.4-3.2c-0.3-2.1,1.3-3.7,4.4-4.3
		c9.2-1.7,14.3-6.9,14.6-14.9C65,81.7,60,75.4,52.6,73.9c-1.5-0.3-3.2-0.2-4.3-0.9c-1.1-0.7-2.5-2.4-2.3-3.3
		c0.2-1.3,1.7-2.7,2.9-3.4c1-0.5,2.6-0.2,3.9,0C63.9,67.8,72.6,77.9,72.4,89.1z"/>
	<path class="st1" d="M75.4,168.9c-4.7,0-9.3-0.1-14,0c-7.2,0.1-11.1,3.3-12.6,10.3c-0.2,0.8,0,1.9-0.5,2.4c-1,1-2.4,2.4-3.4,2.2
		c-1.3-0.2-2.9-1.7-3.3-2.9c-0.5-1.4-0.1-3.3,0.3-4.9c1.8-7.6,7.8-13.2,15.6-14.3c3.1-0.4,6.3-0.4,9.5-0.5c8.2-0.1,16.3-0.1,24.5,0
		c3.1,0,5,1.8,4.7,4c-0.4,2.6-2.2,3.5-4.7,3.5C86.1,168.9,80.8,168.9,75.4,168.9C75.4,168.9,75.4,168.9,75.4,168.9z"/>
	<path class="st0" d="M238.4,187.1c-7,0-12.8-5.6-12.8-12.5c-0.1-7,5.6-12.7,12.6-12.7c7-0.1,12.8,5.6,12.8,12.5
		C251.1,181.4,245.4,187.1,238.4,187.1z M238.3,179.6c2.7,0,5.1-2.3,5.2-5c0.1-2.9-2.5-5.4-5.4-5.3c-2.7,0.1-4.9,2.5-4.9,5.3
		C233.2,177.3,235.5,179.6,238.3,179.6z"/>
	<path class="st0" d="M238.5,78.5c0,7-5.7,12.6-12.7,12.7c-7.1,0-12.7-5.6-12.7-12.6c0-7.1,5.6-12.6,12.7-12.6
		C232.8,65.9,238.5,71.5,238.5,78.5z M225.9,83.7c2.7-0.1,5-2.5,5-5.2c0-2.7-2.4-5.1-5.1-5.1c-2.9,0-5.4,2.6-5.2,5.4
		C220.8,81.5,223.3,83.7,225.9,83.7z"/>
	<path class="st1" d="M234.6,213.4c0.1,7.1-5.4,12.7-12.5,12.8c-7.1,0.1-12.8-5.3-12.9-12.4c-0.1-7.1,5.4-12.7,12.5-12.8
		C228.9,200.9,234.5,206.4,234.6,213.4z M227.2,213.5c-0.1-2.6-2.6-5-5.3-4.9c-2.7,0-5.1,2.4-5.1,5c0,2.8,2.7,5.4,5.5,5.2
		C224.9,218.6,227.3,216,227.2,213.5z"/>
	<path class="st1" d="M95.7,196.8c0,9.2-7,17.3-15.9,18.3c-4,0.4-6.2-0.6-6.3-3.1c-0.1-3.4,2.4-3.8,5-4.3c5.6-1.1,9.2-4.9,9.7-9.9
		c0.5-4.5-2-9-6.3-11c-1.5-0.7-3.2-0.9-4.8-1.3c-2.3-0.5-4.2-1.7-3.7-4.4c0.5-2.6,2.5-3.2,5-3C88,178.6,95.7,187,95.7,196.8z"/>
	<path class="st1" d="M132,105.6c0.2,8.7-6.1,15.9-14.4,16.9c-2.6,0.3-4.8,0-5.6-2.8c-0.6-2.2,0.8-3.7,4.1-4.5
		c1.1-0.3,2.3-0.5,3.3-1c3.4-1.6,5.3-4.9,5-8.5c-0.3-3.9-2.4-6.5-6-7.8c-1.1-0.4-2.3-0.5-3.4-0.7c-2.1-0.4-3.3-1.8-3.1-3.9
		c0.2-2.3,1.8-3.3,4.2-3.4c6.5-0.3,13.6,5.3,15.3,12.2C131.7,103.3,131.8,104.7,132,105.6z"/>
	<path class="st1" d="M74.1,119.1c-0.4-0.2-2.2-0.4-3.3-1.4c-1.9-1.6-1.2-4.6,1.3-5.6c0.9-0.4,1.9-0.5,2.9-0.6
		c9.5-0.7,17.4-8.9,17.8-17.8c0-1,0.1-2.2,0.7-2.8c0.9-1,2.4-2.1,3.5-2.1c1.1,0.1,2.3,1.5,3.2,2.6c0.4,0.5,0.2,1.6,0.2,2.4
		C100.1,106.6,88.1,118.7,74.1,119.1z"/>
	<path class="st1" d="M50.2,141.5c-3.4-0.5-7-0.6-10.2-1.6c-7.5-2.3-12.9-9.5-13.3-17c-0.2-3.1,1-5.1,3.3-5.2c2.7-0.1,3.6,1.7,4.1,4
		c2.1,9,5.6,11.8,14.9,11.9c2.7,0,5.3,0,8,0.1c2.3,0.1,3.8,1.3,3.7,3.7c-0.1,2.4-1.7,3.5-4,3.6c-2.2,0-4.3,0-6.5,0
		C50.3,141.2,50.3,141.4,50.2,141.5z"/>
	<path class="st1" d="M88.1,31.9c2.4-0.2,4.7,0.4,5,3.4c0.3,2.6-1.6,3.8-4.1,4c-4.9,0.4-8,2.8-9,7.8c-0.5,2.3-1.7,4.1-4.4,3.8
		c-2.3-0.3-3.4-2.4-3-5.4C73.7,38.1,80.6,32,88.1,31.9z"/>
	<path class="st1" d="M115.3,168.9c-2.5,0-5,0.1-7.5,0c-2.3-0.1-3.9-1.4-3.9-3.7c0-2.4,1.7-3.6,3.9-3.7c5-0.1,10-0.1,14.9,0
		c2.2,0.1,3.9,1.2,3.9,3.7c0,2.5-1.6,3.6-3.8,3.7C120.2,169,117.7,168.9,115.3,168.9z"/>
	<rect x="147.5" y="149.7" class="st0" width="38.4" height="8"/>
	<rect x="147.6" y="182.3" class="st0" width="30.7" height="8.3"/>
</g>
<path class="st0" d="M147.6,85.8c1.7,0.1,3.4,0.2,5,0.2c10.8,0,21.7,0.2,32.5-0.1c4.9-0.1,8.8,1.4,12,5c1.5,1.8,3.3,3.3,4.9,4.9
	c1.7,1.7,2.5,3.7,0.6,5.7c-1.9,2-3.9,1.4-5.7-0.2c-0.4-0.3-0.8-0.6-1.1-1.1c-4.2-5.9-9.9-7.3-16.9-6.9c-10.3,0.6-20.6,0.1-31.3,0.1
	L147.6,85.8z"/>
</svg>
