<?xml version="1.0" encoding="utf-8"?>
<!-- Generator: Adobe Illustrator 21.1.0, SVG Export Plug-In . SVG Version: 6.00 Build 0)  -->
<svg version="1.1" xmlns="http://www.w3.org/2000/svg" xmlns:xlink="http://www.w3.org/1999/xlink" x="0px" y="0px"
	 viewBox="0 0 50 50" style="enable-background:new 0 0 50 50;" xml:space="preserve">
<style type="text/css">
	.st0{fill:none;stroke:#F27324;stroke-width:2;stroke-linecap:round;stroke-linejoin:round;stroke-miterlimit:10;}
	.st1{fill:#F27324;}
	.st2{fill:none;stroke:#F27324;stroke-width:1.2;stroke-linecap:round;stroke-linejoin:round;stroke-miterlimit:10;}
	.st3{fill:#FFFFFF;}
	.st4{fill:none;stroke:#434343;stroke-width:1.2;stroke-linecap:round;stroke-linejoin:round;stroke-miterlimit:10;}
	.st5{fill:#FFFFFF;stroke:#434343;stroke-width:1.2;stroke-linecap:round;stroke-linejoin:round;stroke-miterlimit:10;}
	.st6{fill:#F27324;stroke:#434343;stroke-width:1.2;stroke-linecap:round;stroke-linejoin:round;stroke-miterlimit:10;}
	.st7{fill:none;stroke:#434343;stroke-width:1.1354;stroke-linecap:round;stroke-linejoin:round;stroke-miterlimit:10;}
	.st8{fill:#434343;}
	.st9{fill:#F27222;}
	.st10{fill:none;stroke:#FF17B3;stroke-miterlimit:10;}
	.st11{fill:none;stroke:#FF17B3;stroke-linecap:round;stroke-miterlimit:10;}
	.st12{fill:none;stroke:#FF17B3;stroke-linecap:round;stroke-linejoin:round;stroke-miterlimit:10;}
	.st13{fill:none;stroke:#FF17B3;stroke-width:0.8981;stroke-linecap:round;stroke-linejoin:round;stroke-miterlimit:10;}
	.st14{fill:none;stroke:#FF17B3;stroke-width:0.9594;stroke-linecap:round;stroke-miterlimit:10;}
	.st15{fill:none;stroke:#FF17B3;stroke-width:0.9594;stroke-linecap:round;stroke-linejoin:round;stroke-miterlimit:10;}
	.st16{fill:none;stroke:#FF17B3;stroke-width:0.9322;stroke-linecap:round;stroke-linejoin:round;stroke-miterlimit:10;}
	.st17{fill:#FF17B3;}
	.st18{fill:none;stroke:#FF17B3;stroke-width:0.8756;stroke-linecap:round;stroke-linejoin:round;stroke-miterlimit:10;}
	.st19{fill:none;stroke:#FF17B3;stroke-width:1.1766;stroke-linecap:round;stroke-linejoin:round;stroke-miterlimit:10;}
	.st20{fill:none;stroke:#FF17B3;stroke-width:1.0759;stroke-linecap:round;stroke-linejoin:round;stroke-miterlimit:10;}
	.st21{fill:none;stroke:#FF17B3;stroke-width:1.6082;stroke-linecap:round;stroke-linejoin:round;stroke-miterlimit:10;}
	.st22{fill:none;stroke:#FF17B3;stroke-width:0.9367;stroke-linecap:round;stroke-linejoin:round;stroke-miterlimit:10;}
	.st23{fill:none;stroke:#FF17B3;stroke-width:1.0606;stroke-linecap:round;stroke-linejoin:round;stroke-miterlimit:10;}
	.st24{fill:#5E3A80;}
	.st25{fill:none;stroke:#F27324;stroke-width:10;stroke-linecap:round;stroke-linejoin:round;stroke-miterlimit:10;}
	.st26{fill:none;stroke:#F27324;stroke-width:10;stroke-linecap:round;stroke-linejoin:round;}
	.st27{fill:none;stroke:#F27324;stroke-width:10;stroke-linecap:round;stroke-linejoin:round;stroke-dasharray:6.807,17.0175;}
	.st28{fill:none;stroke:#F27324;stroke-width:11.7954;stroke-linejoin:round;}
	.st29{fill:none;stroke:#F27324;stroke-width:11.7954;stroke-linejoin:round;stroke-dasharray:7.1852,7.1852;}
	.st30{fill:none;stroke:#F27324;stroke-width:11.7954;stroke-linejoin:round;stroke-dasharray:4.4444,4.4444;}
	.st31{fill:none;stroke:#F27324;stroke-width:1.3712;stroke-linejoin:round;stroke-miterlimit:10;}
	.st32{fill:none;stroke:#F27324;stroke-width:1.3712;stroke-linecap:round;stroke-linejoin:round;stroke-miterlimit:10;}
	.st33{fill:none;stroke:#F27324;stroke-width:1.6174;stroke-miterlimit:10;stroke-dasharray:0.5;}
	.st34{fill:none;stroke:#F27324;stroke-width:1.6174;stroke-linejoin:round;stroke-miterlimit:10;stroke-dasharray:0.5;}
</style>
<g id="Capa_2">
</g>
<g id="Capa_1">
	<g>
		<g>
			<polyline class="st4" points="19.1,36.7 12.1,29.6 34.5,7.4 37.4,10.3 35.3,11 35.6,12.9 33.7,13.5 34,15.5 32.1,16.1 32.4,18.1 
				30.5,18.7 30.8,20.6 28.9,21.2 29.2,23.2 27.3,23.8 27.6,25.8 25.7,26.4 26,28.3 24.1,29 24.4,30.9 22.5,31.5 22.7,33.5 
				20.4,37.3 19.1,36.7 			"/>
			<path class="st6" d="M20.1,38.9l-6,6c-0.5,0.5-1.3,0.4-1.7-0.1l-7.2-9.2c-0.4-0.5-0.3-1.1,0.1-1.5l7.9-7.9c0.5-0.5,1.2-0.5,1.6,0
				l5.2,5.2c0.2,0.2,0.3,0.4,0.3,0.7l0.1,6.1C20.4,38.5,20.3,38.7,20.1,38.9z"/>
			<circle class="st8" cx="14.2" cy="29.3" r="0.8"/>
			<circle class="st8" cx="18" cy="33.1" r="0.8"/>
			<path class="st5" d="M15.8,39.1L13.9,41c-0.3,0.3-0.9,0.3-1.2-0.1l-4.2-5.3c-0.3-0.3-0.2-0.8,0.1-1.1l1.4-1.4
				c0.9-0.9,2.3-0.9,3.2,0l2.7,2.7C16.7,36.8,16.7,38.2,15.8,39.1z"/>
		</g>
		<g>
			<polygon class="st1" points="11.4,12.6 13,16.3 15.1,14.3 			"/>
			<g>
				
					<rect x="22.6" y="13.3" transform="matrix(0.7071 -0.7071 0.7071 0.7071 -11.292 25.4146)" class="st5" width="4.9" height="26.1"/>
				<path class="st6" d="M37.4,38.7L37.4,38.7c-0.9,0.9-2.5,0.9-3.4,0l-1.4-1.4l3.4-3.4l1.4,1.4C38.4,36.2,38.4,37.8,37.4,38.7z"/>
				<line class="st4" x1="30.3" y1="35.1" x2="33.7" y2="31.6"/>
				<polygon class="st4" points="11.2,12.5 14.1,18.8 17.5,15.4 				"/>
				<line class="st4" x1="12.9" y1="16.2" x2="14.9" y2="14.3"/>
			</g>
		</g>
		<g>
			
				<rect x="27.6" y="1.4" transform="matrix(0.7071 -0.7071 0.7071 0.7071 -5.2176 27.045)" class="st3" width="4.8" height="36.9"/>
			<g>
				<line class="st2" x1="21.4" y1="14.9" x2="22.8" y2="13.4"/>
				<line class="st2" x1="28.3" y1="21.7" x2="29.7" y2="20.3"/>
				<line class="st2" x1="35.1" y1="28.6" x2="36.5" y2="27.1"/>
				
					<rect x="27.4" y="1.1" transform="matrix(0.7071 -0.7071 0.7071 0.7071 -5.2176 27.045)" class="st4" width="5.2" height="37.5"/>
				<line class="st4" x1="16.8" y1="10.3" x2="17.9" y2="9.3"/>
				<line class="st4" x1="19.1" y1="12.6" x2="20.2" y2="11.5"/>
				<line class="st4" x1="23.7" y1="17.2" x2="24.7" y2="16.1"/>
				<line class="st4" x1="26" y1="19.4" x2="27" y2="18.4"/>
				<line class="st4" x1="30.5" y1="24" x2="31.6" y2="23"/>
				<line class="st4" x1="32.8" y1="26.3" x2="33.9" y2="25.2"/>
				<line class="st4" x1="37.4" y1="30.9" x2="38.4" y2="29.8"/>
				<line class="st4" x1="39.7" y1="33.1" x2="40.7" y2="32.1"/>
			</g>
		</g>
	</g>
</g>
</svg>
