<?xml version="1.0" encoding="utf-8"?>
<!-- Generator: Adobe Illustrator 21.1.0, SVG Export Plug-In . SVG Version: 6.00 Build 0)  -->
<svg version="1.1" xmlns="http://www.w3.org/2000/svg" xmlns:xlink="http://www.w3.org/1999/xlink" x="0px" y="0px"
	 viewBox="0 0 50 50" style="enable-background:new 0 0 50 50;" xml:space="preserve">
<style type="text/css">
	.st0{fill:none;stroke:#F27324;stroke-width:2;stroke-linecap:round;stroke-linejoin:round;stroke-miterlimit:10;}
	.st1{fill:#F27324;}
	.st2{fill:none;stroke:#F27324;stroke-width:1.2;stroke-linecap:round;stroke-linejoin:round;stroke-miterlimit:10;}
	.st3{fill:#FFFFFF;}
	.st4{fill:none;stroke:#434343;stroke-width:1.2;stroke-linecap:round;stroke-linejoin:round;stroke-miterlimit:10;}
	.st5{fill:#FFFFFF;stroke:#434343;stroke-width:1.2;stroke-linecap:round;stroke-linejoin:round;stroke-miterlimit:10;}
	.st6{fill:#F27324;stroke:#434343;stroke-width:1.2;stroke-linecap:round;stroke-linejoin:round;stroke-miterlimit:10;}
	.st7{fill:none;stroke:#434343;stroke-width:1.1354;stroke-linecap:round;stroke-linejoin:round;stroke-miterlimit:10;}
	.st8{fill:#434343;}
	.st9{fill:#F27222;}
	.st10{fill:none;stroke:#FF17B3;stroke-miterlimit:10;}
	.st11{fill:none;stroke:#FF17B3;stroke-linecap:round;stroke-miterlimit:10;}
	.st12{fill:none;stroke:#FF17B3;stroke-linecap:round;stroke-linejoin:round;stroke-miterlimit:10;}
	.st13{fill:none;stroke:#FF17B3;stroke-width:0.8981;stroke-linecap:round;stroke-linejoin:round;stroke-miterlimit:10;}
	.st14{fill:none;stroke:#FF17B3;stroke-width:0.9594;stroke-linecap:round;stroke-miterlimit:10;}
	.st15{fill:none;stroke:#FF17B3;stroke-width:0.9594;stroke-linecap:round;stroke-linejoin:round;stroke-miterlimit:10;}
	.st16{fill:none;stroke:#FF17B3;stroke-width:0.9322;stroke-linecap:round;stroke-linejoin:round;stroke-miterlimit:10;}
	.st17{fill:#FF17B3;}
	.st18{fill:none;stroke:#FF17B3;stroke-width:0.8756;stroke-linecap:round;stroke-linejoin:round;stroke-miterlimit:10;}
	.st19{fill:none;stroke:#FF17B3;stroke-width:1.1766;stroke-linecap:round;stroke-linejoin:round;stroke-miterlimit:10;}
	.st20{fill:none;stroke:#FF17B3;stroke-width:1.0759;stroke-linecap:round;stroke-linejoin:round;stroke-miterlimit:10;}
	.st21{fill:none;stroke:#FF17B3;stroke-width:1.6082;stroke-linecap:round;stroke-linejoin:round;stroke-miterlimit:10;}
	.st22{fill:none;stroke:#FF17B3;stroke-width:0.9367;stroke-linecap:round;stroke-linejoin:round;stroke-miterlimit:10;}
	.st23{fill:none;stroke:#FF17B3;stroke-width:1.0606;stroke-linecap:round;stroke-linejoin:round;stroke-miterlimit:10;}
	.st24{fill:#5E3A80;}
	.st25{fill:none;stroke:#F27324;stroke-width:10;stroke-linecap:round;stroke-linejoin:round;stroke-miterlimit:10;}
	.st26{fill:none;stroke:#F27324;stroke-width:10;stroke-linecap:round;stroke-linejoin:round;}
	.st27{fill:none;stroke:#F27324;stroke-width:10;stroke-linecap:round;stroke-linejoin:round;stroke-dasharray:6.807,17.0175;}
	.st28{fill:none;stroke:#F27324;stroke-width:11.7954;stroke-linejoin:round;}
	.st29{fill:none;stroke:#F27324;stroke-width:11.7954;stroke-linejoin:round;stroke-dasharray:7.1852,7.1852;}
	.st30{fill:none;stroke:#F27324;stroke-width:11.7954;stroke-linejoin:round;stroke-dasharray:4.4444,4.4444;}
	.st31{fill:none;stroke:#F27324;stroke-width:1.3712;stroke-linejoin:round;stroke-miterlimit:10;}
	.st32{fill:none;stroke:#F27324;stroke-width:1.3712;stroke-linecap:round;stroke-linejoin:round;stroke-miterlimit:10;}
	.st33{fill:none;stroke:#F27324;stroke-width:1.6174;stroke-miterlimit:10;stroke-dasharray:0.5;}
	.st34{fill:none;stroke:#F27324;stroke-width:1.6174;stroke-linejoin:round;stroke-miterlimit:10;stroke-dasharray:0.5;}
</style>
<g id="Capa_2">
</g>
<g id="Capa_1">
	<g>
		<rect x="10.3" y="15.8" class="st1" width="3.4" height="3.2"/>
		<rect x="26.9" y="28.4" class="st1" width="12.5" height="6"/>
		<path class="st4" d="M14.7,25l-1-8.7c0-0.3-0.3-0.6-0.7-0.6H11c-0.3,0-0.6,0.3-0.7,0.6L7.7,40.7c0,0.4,0.3,0.7,0.7,0.7h5"/>
		<path class="st4" d="M22.3,27.3l-8.4,0c-0.3,0-0.5,0.2-0.5,0.5v13.7h10.8"/>
		<path class="st4" d="M24.1,39.6V23.8c0-0.1,0-0.1,0.1-0.1l8.8-5.2c0.1-0.1,0.3,0,0.3,0.1l0,4.8c0,0.1,0.1,0.2,0.3,0.1l8.6-5.1
			c0.1-0.1,0.3,0,0.3,0.1v21.2c0,0.9-0.8,1.7-1.7,1.7H24.1"/>
		<rect x="15.2" y="30.2" class="st4" width="2.6" height="3.2"/>
		<rect x="19.7" y="30.2" class="st4" width="2.6" height="3.2"/>
		<rect x="15.2" y="35.2" class="st4" width="2.6" height="3.2"/>
		<rect x="19.7" y="35.2" class="st6" width="2.6" height="3.2"/>
		<line class="st4" x1="27.2" y1="28.5" x2="39.5" y2="28.5"/>
		<line class="st4" x1="27.2" y1="30.5" x2="39.5" y2="30.5"/>
		<line class="st4" x1="27.2" y1="32.5" x2="39.5" y2="32.5"/>
		<line class="st4" x1="27.2" y1="34.4" x2="39.5" y2="34.4"/>
		<path class="st2" d="M12.1,14v-1.2c0-0.8,0.6-1.4,1.4-1.4h1.3c0.8,0,1.4-0.6,1.4-1.4v0c0-0.8,0.6-1.4,1.4-1.4H20"/>
	</g>
</g>
</svg>
